<svg viewBox="0 0 48 48" fill="none" xmlns="http://www.w3.org/2000/svg">
<path d="M8.02241 41.8359H39.978C40.497 41.8358 41.0072 41.7011 41.4585 41.4449C41.9099 41.1887 42.287 40.8197 42.5532 40.3741C42.8193 39.9285 42.9652 39.4215 42.9768 38.9026C42.9883 38.3837 42.865 37.8707 42.619 37.4137L26.6421 7.74187C25.5087 5.63812 22.4918 5.63812 21.3584 7.74187L5.38148 37.4137C5.13543 37.8707 5.01215 38.3837 5.02369 38.9026C5.03523 39.4215 5.18118 39.9285 5.4473 40.3741C5.71341 40.8197 6.09057 41.1887 6.54193 41.4449C6.99329 41.7011 7.5034 41.8358 8.02241 41.8359V41.8359Z" stroke="inherit" stroke-width="1.5" stroke-linecap="round" stroke-linejoin="round"/>
<path d="M23.4613 18.3235L23.9994 29.761L24.5366 18.3282C24.5399 18.2551 24.5283 18.1821 24.5025 18.1136C24.4766 18.0452 24.4371 17.9827 24.3863 17.9301C24.3355 17.8774 24.2745 17.8357 24.207 17.8074C24.1395 17.7792 24.067 17.7649 23.9938 17.7657V17.7657C23.9219 17.7664 23.8509 17.7815 23.785 17.8101C23.719 17.8387 23.6595 17.8802 23.6098 17.9322C23.5602 17.9842 23.5215 18.0456 23.496 18.1128C23.4705 18.18 23.4587 18.2516 23.4613 18.3235V18.3235Z" stroke="inherit" stroke-width="1.5" stroke-linecap="round" stroke-linejoin="round"/>
<path d="M24 37.2422C23.6292 37.2422 23.2667 37.1322 22.9583 36.9262C22.65 36.7202 22.4096 36.4273 22.2677 36.0847C22.1258 35.7421 22.0887 35.3651 22.161 35.0014C22.2334 34.6377 22.412 34.3036 22.6742 34.0414C22.9364 33.7791 23.2705 33.6006 23.6342 33.5282C23.9979 33.4559 24.3749 33.493 24.7175 33.6349C25.0602 33.7768 25.353 34.0171 25.559 34.3255C25.765 34.6338 25.875 34.9963 25.875 35.3672C25.875 35.8645 25.6775 36.3414 25.3258 36.693C24.9742 37.0446 24.4973 37.2422 24 37.2422Z" fill="inherit"/>
</svg>
