<svg viewBox="0 0 20 21" fill="none" xmlns="http://www.w3.org/2000/svg">
<path d="M12.5 7.375V5.8125C12.5 5.3981 12.3354 5.00067 12.0424 4.70765C11.7493 4.41462 11.3519 4.25 10.9375 4.25H3.4375C3.0231 4.25 2.62567 4.41462 2.33265 4.70765C2.03962 5.00067 1.875 5.3981 1.875 5.8125V15.1875C1.875 15.6019 2.03962 15.9993 2.33265 16.2924C2.62567 16.5854 3.0231 16.75 3.4375 16.75H10.9375C11.3519 16.75 11.7493 16.5854 12.0424 16.2924C12.3354 15.9993 12.5 15.6019 12.5 15.1875V13.625" stroke="inherit" stroke-width="2" stroke-linecap="round" stroke-linejoin="round"/>
<path d="M15 7.375L18.125 10.5L15 13.625" stroke="inherit" stroke-width="2" stroke-linecap="round" stroke-linejoin="round"/>
<path d="M7.46094 10.5H18.125" stroke="inherit" stroke-width="2" stroke-linecap="round" stroke-linejoin="round"/>
</svg>
