<svg viewBox="0 0 24 25" fill="none" xmlns="http://www.w3.org/2000/svg">
<path d="M12.1359 2.75091C6.65243 2.67684 2.17587 7.15341 2.24993 12.6368C2.32305 17.8958 6.60509 22.1778 11.864 22.2509C17.3484 22.3259 21.824 17.8493 21.749 12.3659C21.6768 7.10606 17.3948 2.82403 12.1359 2.75091ZM18.0618 18.0907C18.0431 18.1109 18.0202 18.1268 17.9948 18.1371C17.9693 18.1475 17.9418 18.1521 17.9144 18.1507C17.8869 18.1493 17.8601 18.1418 17.8358 18.1289C17.8116 18.1159 17.7905 18.0978 17.774 18.0757C17.3547 17.5272 16.8413 17.0575 16.2576 16.6887C15.0641 15.9228 13.552 15.5009 11.9999 15.5009C10.4479 15.5009 8.93571 15.9228 7.74227 16.6887C7.15862 17.0574 6.64516 17.5269 6.22587 18.0753C6.20939 18.0973 6.18828 18.1154 6.16402 18.1284C6.13976 18.1413 6.11294 18.1488 6.08548 18.1502C6.05801 18.1517 6.03057 18.147 6.00509 18.1367C5.97961 18.1263 5.95673 18.1105 5.93805 18.0903C4.56259 16.6055 3.78344 14.6653 3.74993 12.6415C3.67352 8.08012 7.41649 4.26216 11.9798 4.25091C16.5431 4.23966 20.2499 7.94512 20.2499 12.5009C20.2515 14.5734 19.4699 16.57 18.0618 18.0907Z" fill="#EDEDF4"/>
<path d="M12 7.25C11.0756 7.25 10.2398 7.59641 9.6459 8.22594C9.05199 8.85547 8.75527 9.72594 8.82231 10.6602C8.95824 12.5 10.3837 14 12 14C13.6162 14 15.0389 12.5 15.1776 10.6606C15.247 9.73531 14.9526 8.87281 14.3489 8.23156C13.7526 7.59875 12.9182 7.25 12 7.25Z" fill="#EDEDF4"/>
</svg>
