<svg viewBox="0 0 22 22" fill="none" xmlns="http://www.w3.org/2000/svg">
<path d="M10.2693 0.778117C10.6645 0.355211 11.3352 0.355211 11.7304 0.778117L13.8467 3.04246C14.0439 3.25339 14.3225 3.36882 14.6111 3.35907L17.7087 3.25439C18.2872 3.23484 18.7614 3.70906 18.7419 4.28759L18.6372 7.38517C18.6274 7.67372 18.7429 7.9524 18.9538 8.14954L21.2181 10.2658C21.6411 10.6611 21.6411 11.3318 21.2181 11.727L18.9538 13.8433C18.7429 14.0404 18.6274 14.3191 18.6372 14.6077L18.7419 17.7053C18.7614 18.2838 18.2872 18.758 17.7087 18.7385L14.6111 18.6338C14.3225 18.624 14.0439 18.7395 13.8467 18.9504L11.7304 21.2147C11.3352 21.6376 10.6645 21.6376 10.2693 21.2147L8.15296 18.9504C7.95582 18.7395 7.67714 18.624 7.38859 18.6338L4.29101 18.7385C3.71248 18.758 3.23825 18.2838 3.25781 17.7053L3.36249 14.6077C3.37224 14.3191 3.25681 14.0404 3.04588 13.8433L0.781535 11.727C0.358629 11.3318 0.358629 10.6611 0.781535 10.2658L3.04588 8.14954C3.25681 7.9524 3.37224 7.67372 3.36249 7.38517L3.25781 4.28759C3.23825 3.70906 3.71248 3.23484 4.29101 3.25439L7.38859 3.35907C7.67714 3.36882 7.95582 3.25339 8.15296 3.04246L10.2693 0.778117Z" fill="#A5A6F6"/>
<path d="M15.375 7.5L9.25 14.5L6.625 11.875" stroke="#EDEDF4" stroke-width="1.16667" stroke-linecap="round" stroke-linejoin="round"/>
</svg>
