<svg viewBox="0 0 100 100" fill="none" xmlns="http://www.w3.org/2000/svg">
<g clip-path="url(#clip0_1761_11795)">
<g filter="url(#filter0_bd_1761_11795)">
<path d="M77.1352 68.9019C76.8291 69.0785 76.4528 69.2146 76.0336 69.2915L62.526 71.7707C58.6918 72.4734 55.2477 72.7665 51.9943 72.67C44.8767 72.4606 38.1963 70.7746 33.1858 67.9183L16.6882 58.521C13.2637 56.6498 13.9237 52.0529 15.111 50.63L26.1459 41.6125C26.7701 40.8527 27.8479 40.2253 29.1702 39.8481L51.0802 33.5555C53.5298 32.8495 56.4578 33.1057 58.3573 34.1901L74.867 43.5944C79.8727 46.4451 83.2443 46.7706 83.7008 50.8706C84.3433 54.8838 83.0757 58.2434 81.9069 60.4552L77.7935 68.2622C77.6675 68.5054 77.4389 68.7239 77.1352 68.9019Z" fill="#05D536" shape-rendering="crispEdges"/>
<path d="M77.2074 68.9429L77.2068 68.9432C76.8898 69.1261 76.4996 69.2673 76.0642 69.3472L62.5567 71.8263L62.5567 71.8263C58.7134 72.5307 55.257 72.8252 51.9891 72.7283C44.8471 72.5181 38.1431 70.8263 33.1147 67.9598C33.1147 67.9598 33.1147 67.9598 33.1147 67.9598L16.6187 58.5634C16.6184 58.5632 16.6181 58.5631 16.6179 58.5629C14.8767 57.6112 14.184 55.9748 14.0691 54.4098C13.9541 52.8438 14.4162 51.3281 15.0198 50.6046L15.0271 50.5958L15.0283 50.5963L26.0582 41.5829C26.6929 40.8131 27.7856 40.178 29.1252 39.7958C29.1253 39.7958 29.1253 39.7958 29.1254 39.7958L51.035 33.5033L77.2074 68.9429ZM77.2074 68.9429C77.5222 68.7583 77.7594 68.5317 77.8903 68.2792C77.8903 68.2791 77.8904 68.279 77.8904 68.2789L82.0037 60.4722L77.2074 68.9429ZM58.4285 34.1486L58.4284 34.1486C56.4971 33.0461 53.5222 32.7864 51.0351 33.5033L58.4285 34.1486ZM58.4285 34.1486L74.9381 43.5529C76.1862 44.2637 77.3326 44.8171 78.3598 45.3126L78.3763 45.3206C79.3955 45.8122 80.3001 46.2485 81.0641 46.7243C82.6072 47.6854 83.5719 48.8048 83.8017 50.8659C84.4455 54.8888 83.1748 58.2561 82.0037 60.4721L58.4285 34.1486Z" stroke="url(#paint0_linear_1761_11795)" stroke-width="0.165212" stroke-linecap="round" stroke-linejoin="round" shape-rendering="crispEdges"/>
</g>
<g filter="url(#filter1_b_1761_11795)">
<mask id="path-3-outside-1_1761_11795" maskUnits="userSpaceOnUse" x="4.7669" y="23.6103" width="94.4139" height="54.4703" fill="black">
<rect fill="white" x="4.7669" y="23.6103" width="94.4139" height="54.4703"/>
<path d="M77.1352 64.8558C76.829 65.0324 76.4527 65.1685 76.0335 65.2454L62.526 67.7246C58.6917 68.4273 55.2476 68.7204 51.9942 68.6239C44.8766 68.4144 38.1962 66.7284 33.1857 63.8722L16.6881 54.4748C14.7837 53.3905 14.3076 51.7058 15.4948 50.2829L26.1458 37.5664C26.77 36.8066 27.8478 36.1792 29.1701 35.802L51.0801 29.5094C53.5297 28.8033 56.4577 29.0596 58.3572 30.144L74.8669 39.5483C79.8726 42.3989 82.8791 46.2269 83.3356 50.3269C83.5445 52.2078 83.0756 54.1973 81.9068 56.409L77.7934 64.2161C77.6674 64.4593 77.4389 64.6778 77.1352 64.8558Z"/>
</mask>
<path d="M77.1352 64.8558C76.829 65.0324 76.4527 65.1685 76.0335 65.2454L62.526 67.7246C58.6917 68.4273 55.2476 68.7204 51.9942 68.6239C44.8766 68.4144 38.1962 66.7284 33.1857 63.8722L16.6881 54.4748C14.7837 53.3905 14.3076 51.7058 15.4948 50.2829L26.1458 37.5664C26.77 36.8066 27.8478 36.1792 29.1701 35.802L51.0801 29.5094C53.5297 28.8033 56.4577 29.0596 58.3572 30.144L74.8669 39.5483C79.8726 42.3989 82.8791 46.2269 83.3356 50.3269C83.5445 52.2078 83.0756 54.1973 81.9068 56.409L77.7934 64.2161C77.6674 64.4593 77.4389 64.6778 77.1352 64.8558Z" fill="url(#paint1_linear_1761_11795)"/>
<path d="M77.5174 65.0763C77.7284 64.9545 77.7284 64.7571 77.5174 64.6353C77.3063 64.5135 76.964 64.5135 76.7529 64.6353L77.5174 65.0763ZM76.0335 65.2454L75.8696 64.9482L75.8696 64.9482L76.0335 65.2454ZM62.526 67.7246L62.6896 68.0218L62.6898 68.0218L62.526 67.7246ZM51.9942 68.6239L52.022 68.3125L52.0218 68.3125L51.9942 68.6239ZM33.1857 63.8722L33.5656 63.6504L33.5655 63.6503L33.1857 63.8722ZM16.6881 54.4748L17.0679 54.2529L17.0678 54.2529L16.6881 54.4748ZM15.4948 50.2829L15.0081 50.1472L15.0077 50.1476L15.4948 50.2829ZM26.1458 37.5664L26.6325 37.7021L26.6342 37.7L26.1458 37.5664ZM29.1701 35.802L29.4097 36.0816L29.411 36.0812L29.1701 35.802ZM51.0801 29.5094L51.321 29.7886L51.3217 29.7884L51.0801 29.5094ZM58.3572 30.144L57.977 30.3657L57.9774 30.3659L58.3572 30.144ZM74.8669 39.5483L74.4871 39.7702L74.4872 39.7702L74.8669 39.5483ZM83.3356 50.3269L83.875 50.307L83.875 50.3069L83.3356 50.3269ZM81.9068 56.409L81.3897 56.3181L81.3896 56.3183L81.9068 56.409ZM77.7934 64.2161L77.2762 64.1254L77.2755 64.1268L77.7934 64.2161ZM76.7499 64.637C76.5405 64.7598 76.5432 64.9572 76.756 65.078C76.9687 65.1989 77.311 65.1973 77.5204 65.0746L76.7499 64.637ZM76.7529 64.6353C76.5049 64.7784 76.2024 64.8872 75.8696 64.9482L76.1973 65.5426C76.7029 65.4498 77.1532 65.2864 77.5174 65.0763L76.7529 64.6353ZM75.8696 64.9482L62.3621 67.4274L62.6898 68.0218L76.1973 65.5426L75.8696 64.9482ZM62.3623 67.4274C58.5761 68.1213 55.1976 68.4067 52.022 68.3125L51.9665 68.9353C55.2976 69.0341 58.8073 68.7333 62.6896 68.0218L62.3623 67.4274ZM52.0218 68.3125C45.0348 68.1068 38.4803 66.452 33.5656 63.6504L32.8058 64.094C37.9121 67.0049 44.7185 68.722 51.9667 68.9353L52.0218 68.3125ZM33.5655 63.6503L17.0679 54.2529L16.3084 54.6968L32.8059 64.0941L33.5655 63.6503ZM17.0678 54.2529C15.3336 53.2654 14.8912 51.7252 15.9818 50.4181L15.0077 50.1476C13.7239 51.6863 14.2339 53.5156 16.3085 54.6968L17.0678 54.2529ZM15.9815 50.4186L26.6325 37.7021L25.6591 37.4307L15.0081 50.1472L15.9815 50.4186ZM26.6342 37.7C27.2053 37.0047 28.1943 36.4282 29.4097 36.0816L28.9306 35.5225C27.5012 35.9302 26.3346 36.6084 25.6573 37.4328L26.6342 37.7ZM29.411 36.0812L51.321 29.7886L50.8392 29.2302L28.9292 35.5228L29.411 36.0812ZM51.3217 29.7884C53.5707 29.1401 56.2473 29.3782 57.977 30.3657L58.7374 29.9223C56.6681 28.741 53.4887 28.4666 50.8386 29.2304L51.3217 29.7884ZM57.9774 30.3659L74.4871 39.7702L75.2466 39.3264L58.737 29.9221L57.9774 30.3659ZM74.4872 39.7702C79.3972 42.5664 82.348 46.3222 82.7962 50.3469L83.875 50.3069C83.4101 46.1317 80.348 42.2315 75.2466 39.3264L74.4872 39.7702ZM82.7962 50.3468C83 52.1827 82.5439 54.1342 81.3897 56.3181L82.4238 56.5C83.6074 54.2604 84.0889 52.2328 83.875 50.307L82.7962 50.3468ZM81.3896 56.3183L77.2762 64.1254L78.3105 64.3068L82.4239 56.4997L81.3896 56.3183ZM77.2755 64.1268C77.1755 64.3198 76.9937 64.4942 76.7499 64.637L77.5204 65.0746C77.884 64.8614 78.1593 64.5988 78.3113 64.3054L77.2755 64.1268Z" fill="url(#paint2_linear_1761_11795)" mask="url(#path-3-outside-1_1761_11795)"/>
</g>
<g filter="url(#filter2_d_1761_11795)">
<path d="M17.4445 37.0512L18.4318 36.4813C35.3266 26.728 63.4518 28.3293 76.7208 39.7999L73.5853 45.6148C73.067 46.5759 72.0375 47.4185 70.643 48.0228L53.2234 50.6485C51.898 50.8483 50.5015 50.8258 49.1974 50.5838L32.3172 47.4507L17.4445 37.0512Z" fill="#27F171"/>
</g>
<g filter="url(#filter3_b_1761_11795)">
<path d="M72.7093 47.5923L72.7088 47.5926C72.3918 47.7755 72.0016 47.9167 71.5662 47.9966L58.0587 50.4758L58.0586 50.4758C54.2154 51.1801 50.759 51.4747 47.4911 51.3777C40.3491 51.1676 33.6451 49.4757 28.6167 46.6093C28.6166 46.6093 28.6166 46.6092 28.6166 46.6092L12.1206 37.2128C12.1204 37.2126 12.1201 37.2125 12.1198 37.2123C10.3786 36.2606 9.68598 34.6242 9.57103 33.0592C9.45601 31.4932 9.91813 29.9775 10.5217 29.2541L10.5291 29.2452L10.5302 29.2457L21.5602 20.2324C22.1948 19.4625 23.2875 18.8274 24.6272 18.4452C24.6272 18.4452 24.6273 18.4452 24.6273 18.4452L46.5369 12.1527L72.7093 47.5923ZM72.7093 47.5923C73.0241 47.4078 73.2614 47.1811 73.3922 46.9286C73.3923 46.9285 73.3923 46.9284 73.3924 46.9283L77.5056 39.1216L72.7093 47.5923ZM53.9304 12.798L53.9303 12.798C51.9991 11.6955 49.0242 11.4358 46.5371 12.1527L53.9304 12.798ZM53.9304 12.798L70.44 22.2023C71.6881 22.9131 72.8345 23.4665 73.8617 23.962L73.8782 23.97C74.8974 24.4616 75.8021 24.8979 76.566 25.3737C78.1092 26.3348 79.0739 27.4542 79.3036 29.5154C79.9474 33.5382 78.6768 36.9055 77.5056 39.1215L53.9304 12.798Z" fill="white" fill-opacity="0.5" stroke="url(#paint3_linear_1761_11795)" stroke-width="0.165212" stroke-linecap="round" stroke-linejoin="round"/>
</g>
<g filter="url(#filter4_b_1761_11795)">
<mask id="path-7-outside-2_1761_11795" maskUnits="userSpaceOnUse" x="0.269099" y="2.25972" width="94.4139" height="54.4703" fill="black">
<rect fill="white" x="0.269099" y="2.25972" width="94.4139" height="54.4703"/>
<path d="M72.6374 43.5052C72.3312 43.6818 71.9549 43.8179 71.5357 43.8948L58.0281 46.374C54.1939 47.0767 50.7498 47.3698 47.4964 47.2733C40.3788 47.0639 33.6984 45.3779 28.6879 42.5216L12.1903 33.1243C10.2859 32.0399 9.80975 30.3552 10.997 28.9323L21.648 16.2158C22.2722 15.456 23.35 14.8286 24.6723 14.4514L46.5823 8.15882C49.0319 7.45276 51.9599 7.70901 53.8594 8.7934L70.3691 18.1977C75.3748 21.0484 78.3813 24.8763 78.8378 28.9763C79.0467 30.8572 78.5778 32.8467 77.409 35.0585L73.2956 42.8655C73.1696 43.1087 72.941 43.3272 72.6374 43.5052Z"/>
</mask>
<path d="M72.6374 43.5052C72.3312 43.6818 71.9549 43.8179 71.5357 43.8948L58.0281 46.374C54.1939 47.0767 50.7498 47.3698 47.4964 47.2733C40.3788 47.0639 33.6984 45.3779 28.6879 42.5216L12.1903 33.1243C10.2859 32.0399 9.80975 30.3552 10.997 28.9323L21.648 16.2158C22.2722 15.456 23.35 14.8286 24.6723 14.4514L46.5823 8.15882C49.0319 7.45276 51.9599 7.70901 53.8594 8.7934L70.3691 18.1977C75.3748 21.0484 78.3813 24.8763 78.8378 28.9763C79.0467 30.8572 78.5778 32.8467 77.409 35.0585L73.2956 42.8655C73.1696 43.1087 72.941 43.3272 72.6374 43.5052Z" fill="white" fill-opacity="0.5"/>
<path d="M73.0196 43.7257C73.2306 43.6039 73.2306 43.4065 73.0196 43.2847C72.8085 43.1629 72.4662 43.1629 72.2551 43.2847L73.0196 43.7257ZM71.5357 43.8948L71.3718 43.5977L71.3718 43.5977L71.5357 43.8948ZM58.0281 46.374L58.1918 46.6712L58.192 46.6712L58.0281 46.374ZM47.4964 47.2733L47.5242 46.9619L47.524 46.9619L47.4964 47.2733ZM28.6879 42.5216L29.0678 42.2998L29.0677 42.2997L28.6879 42.5216ZM12.1903 33.1243L12.5701 32.9024L12.57 32.9023L12.1903 33.1243ZM10.997 28.9323L10.5103 28.7966L10.5099 28.797L10.997 28.9323ZM21.648 16.2158L22.1347 16.3515L22.1364 16.3494L21.648 16.2158ZM24.6723 14.4514L24.9119 14.731L24.9132 14.7306L24.6723 14.4514ZM46.5823 8.15882L46.8232 8.43799L46.8239 8.43779L46.5823 8.15882ZM53.8594 8.7934L53.4792 9.01507L53.4796 9.01531L53.8594 8.7934ZM70.3691 18.1977L69.9893 18.4196L69.9894 18.4197L70.3691 18.1977ZM78.8378 28.9763L79.3772 28.9564L79.3772 28.9563L78.8378 28.9763ZM77.409 35.0585L76.8919 34.9675L76.8918 34.9678L77.409 35.0585ZM73.2956 42.8655L72.7784 42.7748L72.7777 42.7762L73.2956 42.8655ZM72.2521 43.2865C72.0427 43.4092 72.0454 43.6066 72.2582 43.7275C72.4709 43.8483 72.8132 43.8467 73.0226 43.724L72.2521 43.2865ZM72.2551 43.2847C72.0071 43.4278 71.7046 43.5366 71.3718 43.5977L71.6995 44.192C72.2051 44.0992 72.6554 43.9358 73.0196 43.7257L72.2551 43.2847ZM71.3718 43.5977L57.8643 46.0768L58.192 46.6712L71.6995 44.192L71.3718 43.5977ZM57.8645 46.0768C54.0783 46.7707 50.6998 47.0561 47.5242 46.9619L47.4687 47.5847C50.7998 47.6835 54.3095 47.3827 58.1918 46.6712L57.8645 46.0768ZM47.524 46.9619C40.537 46.7563 33.9825 45.1014 29.0678 42.2998L28.308 42.7434C33.4143 45.6543 40.2207 47.3715 47.4689 47.5848L47.524 46.9619ZM29.0677 42.2997L12.5701 32.9024L11.8106 33.3462L28.3081 42.7435L29.0677 42.2997ZM12.57 32.9023C10.8358 31.9148 10.3934 30.3746 11.484 29.0675L10.5099 28.797C9.22609 30.3357 9.73608 32.165 11.8107 33.3462L12.57 32.9023ZM11.4837 29.068L22.1347 16.3515L21.1613 16.0801L10.5103 28.7966L11.4837 29.068ZM22.1364 16.3494C22.7075 15.6542 23.6965 15.0776 24.9119 14.731L24.4328 14.1719C23.0034 14.5796 21.8368 15.2578 21.1595 16.0823L22.1364 16.3494ZM24.9132 14.7306L46.8232 8.43799L46.3414 7.87966L24.4314 14.1723L24.9132 14.7306ZM46.8239 8.43779C49.0729 7.78953 51.7495 8.02758 53.4792 9.01506L54.2396 8.57173C52.1703 7.39043 48.9909 7.11598 46.3408 7.87986L46.8239 8.43779ZM53.4796 9.01531L69.9893 18.4196L70.7488 17.9758L54.2392 8.57149L53.4796 9.01531ZM69.9894 18.4197C74.8994 21.2158 77.8502 24.9716 78.2984 28.9963L79.3772 28.9563C78.9123 24.7811 75.8502 20.8809 70.7488 17.9758L69.9894 18.4197ZM78.2984 28.9963C78.5022 30.8322 78.0461 32.7837 76.8919 34.9675L77.926 35.1494C79.1096 32.9098 79.5911 30.8822 79.3772 28.9564L78.2984 28.9963ZM76.8918 34.9678L72.7784 42.7748L73.8127 42.9562L77.9261 35.1491L76.8918 34.9678ZM72.7777 42.7762C72.6777 42.9692 72.4959 43.1436 72.2521 43.2865L73.0226 43.724C73.3862 43.5108 73.6615 43.2482 73.8135 42.9548L72.7777 42.7762Z" fill="url(#paint4_linear_1761_11795)" mask="url(#path-7-outside-2_1761_11795)"/>
</g>
<g filter="url(#filter5_i_1761_11795)">
<path d="M40.9395 32.8362L40.9395 32.8363C40.9286 33.6188 42.0193 34.2403 43.3789 34.2273C43.379 34.2273 43.379 34.2273 43.3791 34.2273L52.5423 34.1243C53.2248 34.1164 53.8397 33.9498 54.2901 33.6872C54.7403 33.4249 55.0199 33.0676 55.0243 32.6738L55.0243 32.6738L55.1564 21.7864L55.1564 21.7862C55.1695 21.0052 54.0766 20.3823 52.7145 20.3967C51.3558 20.411 50.2437 21.0603 50.2327 21.8472L40.9395 32.8362ZM40.9395 32.8362C40.9481 32.0509 42.0599 31.4015 43.4215 31.3858L50.0133 31.3106L50.1168 31.3094L50.1175 31.2497L50.2327 21.8472L40.9395 32.8362Z" fill="#26F172" stroke="url(#paint5_linear_1761_11795)" stroke-width="0.173611"/>
</g>
</g>
<defs>
<filter id="filter0_bd_1761_11795" x="0.733211" y="29.0779" width="96.5602" height="73.465" filterUnits="userSpaceOnUse" color-interpolation-filters="sRGB">
<feFlood flood-opacity="0" result="BackgroundImageFix"/>
<feGaussianBlur in="BackgroundImageFix" stdDeviation="1.98255"/>
<feComposite in2="SourceAlpha" operator="in" result="effect1_backgroundBlur_1761_11795"/>
<feColorMatrix in="SourceAlpha" type="matrix" values="0 0 0 0 0 0 0 0 0 0 0 0 0 0 0 0 0 0 127 0" result="hardAlpha"/>
<feOffset dy="16.5212"/>
<feGaussianBlur stdDeviation="6.60849"/>
<feComposite in2="hardAlpha" operator="out"/>
<feColorMatrix type="matrix" values="0 0 0 0 0.343982 0 0 0 0 1 0 0 0 0 0.448945 0 0 0 0.5 0"/>
<feBlend mode="normal" in2="effect1_backgroundBlur_1761_11795" result="effect2_dropShadow_1761_11795"/>
<feBlend mode="normal" in="SourceGraphic" in2="effect2_dropShadow_1761_11795" result="shape"/>
</filter>
<filter id="filter1_b_1761_11795" x="10.3425" y="24.8367" width="77.5469" height="48.0825" filterUnits="userSpaceOnUse" color-interpolation-filters="sRGB">
<feFlood flood-opacity="0" result="BackgroundImageFix"/>
<feGaussianBlur in="BackgroundImageFix" stdDeviation="1.98255"/>
<feComposite in2="SourceAlpha" operator="in" result="effect1_backgroundBlur_1761_11795"/>
<feBlend mode="normal" in="SourceGraphic" in2="effect1_backgroundBlur_1761_11795" result="shape"/>
</filter>
<filter id="filter2_d_1761_11795" x="10.9729" y="28.6044" width="72.2196" height="33.6514" filterUnits="userSpaceOnUse" color-interpolation-filters="sRGB">
<feFlood flood-opacity="0" result="BackgroundImageFix"/>
<feColorMatrix in="SourceAlpha" type="matrix" values="0 0 0 0 0 0 0 0 0 0 0 0 0 0 0 0 0 0 127 0" result="hardAlpha"/>
<feOffset dy="5.00087"/>
<feGaussianBlur stdDeviation="3.23586"/>
<feComposite in2="hardAlpha" operator="out"/>
<feColorMatrix type="matrix" values="0 0 0 0 0 0 0 0 0 0.824769 0 0 0 0 0.300654 0 0 0 1 0"/>
<feBlend mode="normal" in2="BackgroundImageFix" result="effect1_dropShadow_1761_11795"/>
<feBlend mode="normal" in="SourceGraphic" in2="effect1_dropShadow_1761_11795" result="shape"/>
</filter>
<filter id="filter3_b_1761_11795" x="6.51046" y="8.75069" width="76.0096" height="45.6451" filterUnits="userSpaceOnUse" color-interpolation-filters="sRGB">
<feFlood flood-opacity="0" result="BackgroundImageFix"/>
<feGaussianBlur in="BackgroundImageFix" stdDeviation="1.47084"/>
<feComposite in2="SourceAlpha" operator="in" result="effect1_backgroundBlur_1761_11795"/>
<feBlend mode="normal" in="SourceGraphic" in2="effect1_backgroundBlur_1761_11795" result="shape"/>
</filter>
<filter id="filter4_b_1761_11795" x="3.92644" y="1.56779" width="81.3835" height="51.9191" filterUnits="userSpaceOnUse" color-interpolation-filters="sRGB">
<feFlood flood-opacity="0" result="BackgroundImageFix"/>
<feGaussianBlur in="BackgroundImageFix" stdDeviation="2.94169"/>
<feComposite in2="SourceAlpha" operator="in" result="effect1_backgroundBlur_1761_11795"/>
<feBlend mode="normal" in="SourceGraphic" in2="effect1_backgroundBlur_1761_11795" result="shape"/>
</filter>
<filter id="filter5_i_1761_11795" x="40.833" y="20.335" width="14.4299" height="14.2869" filterUnits="userSpaceOnUse" color-interpolation-filters="sRGB">
<feFlood flood-opacity="0" result="BackgroundImageFix"/>
<feBlend mode="normal" in="SourceGraphic" in2="BackgroundImageFix" result="shape"/>
<feColorMatrix in="SourceAlpha" type="matrix" values="0 0 0 0 0 0 0 0 0 0 0 0 0 0 0 0 0 0 127 0" result="hardAlpha"/>
<feOffset dy="0.773665"/>
<feGaussianBlur stdDeviation="0.1664"/>
<feComposite in2="hardAlpha" operator="arithmetic" k2="-1" k3="1"/>
<feColorMatrix type="matrix" values="0 0 0 0 1 0 0 0 0 1 0 0 0 0 1 0 0 0 1 0"/>
<feBlend mode="normal" in2="shape" result="effect1_innerShadow_1761_11795"/>
</filter>
<linearGradient id="paint0_linear_1761_11795" x1="18.9954" y1="52.0753" x2="85.2261" y2="55.502" gradientUnits="userSpaceOnUse">
<stop stop-color="white" stop-opacity="0.25"/>
<stop offset="1" stop-color="white" stop-opacity="0"/>
</linearGradient>
<linearGradient id="paint1_linear_1761_11795" x1="27.5123" y1="36.4736" x2="52.1899" y2="79.2475" gradientUnits="userSpaceOnUse">
<stop stop-color="#24EF7F"/>
<stop offset="1" stop-color="#26F16D"/>
</linearGradient>
<linearGradient id="paint2_linear_1761_11795" x1="49.0494" y1="45.7318" x2="51.1382" y2="70.7604" gradientUnits="userSpaceOnUse">
<stop stop-color="white" stop-opacity="0.43"/>
<stop offset="0.846595" stop-color="white"/>
<stop offset="1" stop-color="white" stop-opacity="0"/>
</linearGradient>
<linearGradient id="paint3_linear_1761_11795" x1="14.4974" y1="30.7247" x2="80.7281" y2="34.1514" gradientUnits="userSpaceOnUse">
<stop stop-color="white" stop-opacity="0.25"/>
<stop offset="1" stop-color="white" stop-opacity="0"/>
</linearGradient>
<linearGradient id="paint4_linear_1761_11795" x1="56.4856" y1="48.7328" x2="60.607" y2="14.1596" gradientUnits="userSpaceOnUse">
<stop stop-color="white" stop-opacity="0.79"/>
<stop offset="1" stop-color="white" stop-opacity="0"/>
</linearGradient>
<linearGradient id="paint5_linear_1761_11795" x1="39.2423" y1="29.2516" x2="56.935" y2="37.2614" gradientUnits="userSpaceOnUse">
<stop stop-color="white" stop-opacity="0.25"/>
<stop offset="1" stop-color="white" stop-opacity="0"/>
</linearGradient>
<clipPath id="clip0_1761_11795">
<rect width="100" height="100" fill="white"/>
</clipPath>
</defs>
</svg>
