<svg viewBox="0 0 100 100" fill="none" xmlns="http://www.w3.org/2000/svg">
<g clip-path="url(#clip0_1761_11809)">
<g filter="url(#filter0_d_1761_11809)">
<path d="M71.9553 38.7871C85.7742 46.7648 84.4939 63.5631 71.064 70.3667C57.2451 78.3444 34.8402 78.3444 21.0213 70.3667C6.91093 62.6589 6.29377 46.9457 20.1127 38.968C33.9316 30.9904 58.1363 30.8095 71.9553 38.7871Z" fill="#1864F8"/>
</g>
<circle cx="28.8916" cy="28.8916" r="28.7056" transform="matrix(0.866044 -0.499967 0.866044 0.499967 -4 52.5459)" fill="#3383FF" stroke="url(#paint0_linear_1761_11809)" stroke-width="0.372006"/>
<g filter="url(#filter1_d_1761_11809)">
<path d="M38.3114 55.9581C16.6276 45.9892 23.9729 31.7164 30.356 25.8262C36.6452 26.319 52.448 27.4736 65.3456 28.1494C81.4676 28.9942 82.1716 54.4093 74.8498 57.2957C67.5281 60.1822 68.7249 61.027 38.3114 55.9581Z" fill="#337EFF"/>
</g>
<g filter="url(#filter2_b_1761_11809)">
<path d="M83.6966 55.5813L83.6965 55.5811L83.6896 55.5851C76.8073 59.5582 67.7779 61.5489 58.7406 61.5489C49.7034 61.5489 40.6739 59.5582 33.7917 55.5851L33.7917 55.585L33.7887 55.5834C26.7691 51.7489 23.125 45.9355 22.9362 40.1076C22.7476 34.2813 26.0113 28.4043 32.8831 24.4372C39.7645 20.4646 49.2436 18.428 58.7327 18.3829C68.2219 18.3377 77.7003 20.2841 84.5809 24.2563C91.4477 28.2205 94.5501 34.3659 94.2813 40.3544C94.0124 46.345 90.369 52.201 83.6966 55.5813Z" fill="white" fill-opacity="0.5" stroke="url(#paint1_linear_1761_11809)" stroke-width="0.289637"/>
</g>
<g filter="url(#filter3_b_1761_11809)">
<circle cx="28.8916" cy="28.8916" r="28.7056" transform="matrix(0.866044 -0.499967 0.866044 0.499967 8.69849 37.8896)" fill="white" fill-opacity="0.5" stroke="url(#paint2_linear_1761_11809)" stroke-width="0.372006"/>
</g>
<g filter="url(#filter4_i_1761_11809)">
<path d="M57.3162 42.5861C59.7036 43.9634 63.4692 44.006 65.7335 42.6996L70.3605 40.0302C72.3295 38.8942 72.2557 37.0057 70.1637 35.7988C67.924 34.5066 66.1273 34.606 64.1584 35.1456L54.1659 37.9287C52.1969 38.4682 50.4249 38.5818 48.1606 37.2755C46.0932 36.0827 45.9947 34.18 47.9637 33.0441L52.5907 30.3746C54.855 29.0683 58.6207 29.1108 61.0081 30.4882" stroke="#337EFF" stroke-width="3.59859" stroke-linecap="round" stroke-linejoin="round"/>
<path d="M48.0864 30.1621L70.2372 42.9416" stroke="#337EFF" stroke-width="3.59859" stroke-linecap="round" stroke-linejoin="round"/>
</g>
</g>
<defs>
<filter id="filter0_d_1761_11809" x="0.165529" y="32.8936" width="91.4988" height="65.7764" filterUnits="userSpaceOnUse" color-interpolation-filters="sRGB">
<feFlood flood-opacity="0" result="BackgroundImageFix"/>
<feColorMatrix in="SourceAlpha" type="matrix" values="0 0 0 0 0 0 0 0 0 0 0 0 0 0 0 0 0 0 127 0" result="hardAlpha"/>
<feOffset dy="12.4002"/>
<feGaussianBlur stdDeviation="4.96008"/>
<feComposite in2="hardAlpha" operator="out"/>
<feColorMatrix type="matrix" values="0 0 0 0 0.343982 0 0 0 0 0.567028 0 0 0 0 1 0 0 0 0.5 0"/>
<feBlend mode="normal" in2="BackgroundImageFix" result="effect1_dropShadow_1761_11809"/>
<feBlend mode="normal" in="SourceGraphic" in2="effect1_dropShadow_1761_11809" result="shape"/>
</filter>
<filter id="filter1_d_1761_11809" x="11.6426" y="21.4816" width="79.838" height="58.1166" filterUnits="userSpaceOnUse" color-interpolation-filters="sRGB">
<feFlood flood-opacity="0" result="BackgroundImageFix"/>
<feColorMatrix in="SourceAlpha" type="matrix" values="0 0 0 0 0 0 0 0 0 0 0 0 0 0 0 0 0 0 127 0" result="hardAlpha"/>
<feOffset dy="7.8202"/>
<feGaussianBlur stdDeviation="6.08237"/>
<feComposite in2="hardAlpha" operator="out"/>
<feColorMatrix type="matrix" values="0 0 0 0 0.188235 0 0 0 0 0.220706 0 0 0 0 1 0 0 0 0.7 0"/>
<feBlend mode="normal" in2="BackgroundImageFix" result="effect1_dropShadow_1761_11809"/>
<feBlend mode="normal" in="SourceGraphic" in2="effect1_dropShadow_1761_11809" result="shape"/>
</filter>
<filter id="filter2_b_1761_11809" x="12.8635" y="8.31714" width="91.4988" height="63.2964" filterUnits="userSpaceOnUse" color-interpolation-filters="sRGB">
<feFlood flood-opacity="0" result="BackgroundImageFix"/>
<feGaussianBlur in="BackgroundImageFix" stdDeviation="4.96008"/>
<feComposite in2="SourceAlpha" operator="in" result="effect1_backgroundBlur_1761_11809"/>
<feBlend mode="normal" in="SourceGraphic" in2="effect1_backgroundBlur_1761_11809" result="shape"/>
</filter>
<filter id="filter3_b_1761_11809" x="13.4355" y="7.54175" width="90.6116" height="60.6958" filterUnits="userSpaceOnUse" color-interpolation-filters="sRGB">
<feFlood flood-opacity="0" result="BackgroundImageFix"/>
<feGaussianBlur in="BackgroundImageFix" stdDeviation="4.96008"/>
<feComposite in2="SourceAlpha" operator="in" result="effect1_backgroundBlur_1761_11809"/>
<feBlend mode="normal" in="SourceGraphic" in2="effect1_backgroundBlur_1761_11809" result="shape"/>
</filter>
<filter id="filter4_i_1761_11809" x="44.3418" y="28.1523" width="29.6494" height="17.0592" filterUnits="userSpaceOnUse" color-interpolation-filters="sRGB">
<feFlood flood-opacity="0" result="BackgroundImageFix"/>
<feBlend mode="normal" in="SourceGraphic" in2="BackgroundImageFix" result="shape"/>
<feColorMatrix in="SourceAlpha" type="matrix" values="0 0 0 0 0 0 0 0 0 0 0 0 0 0 0 0 0 0 127 0" result="hardAlpha"/>
<feOffset dy="0.673324"/>
<feGaussianBlur stdDeviation="0.144818"/>
<feComposite in2="hardAlpha" operator="arithmetic" k2="-1" k3="1"/>
<feColorMatrix type="matrix" values="0 0 0 0 1 0 0 0 0 1 0 0 0 0 1 0 0 0 1 0"/>
<feBlend mode="normal" in2="shape" result="effect1_innerShadow_1761_11809"/>
</filter>
<linearGradient id="paint0_linear_1761_11809" x1="5.00672" y1="23.5037" x2="30.3747" y2="47.2961" gradientUnits="userSpaceOnUse">
<stop stop-color="white" stop-opacity="0.43"/>
<stop offset="0.846595" stop-color="white" stop-opacity="0.44"/>
<stop offset="1" stop-color="white" stop-opacity="0"/>
</linearGradient>
<linearGradient id="paint1_linear_1761_11809" x1="28.9927" y1="35.9135" x2="46.4264" y2="62.8759" gradientUnits="userSpaceOnUse">
<stop stop-color="white" stop-opacity="0"/>
<stop offset="0.846595" stop-color="white" stop-opacity="0.06"/>
<stop offset="1" stop-color="white" stop-opacity="0.23"/>
</linearGradient>
<linearGradient id="paint2_linear_1761_11809" x1="5.00672" y1="23.5037" x2="30.3747" y2="47.2961" gradientUnits="userSpaceOnUse">
<stop stop-color="white" stop-opacity="0.43"/>
<stop offset="0.846595" stop-color="white" stop-opacity="0.44"/>
<stop offset="1" stop-color="white" stop-opacity="0"/>
</linearGradient>
<clipPath id="clip0_1761_11809">
<rect width="100" height="100" fill="white"/>
</clipPath>
</defs>
</svg>
