<svg viewBox="0 0 100 100" fill="none" xmlns="http://www.w3.org/2000/svg">
<path d="M16.0829 55.0227C11.6266 52.5303 11.5599 45.3974 15.3597 43.3975L42.3415 30.5314C46.8054 27.9544 54.0428 27.9544 58.5066 30.5314L85.2885 43.2642C89.4215 45.3307 89.2291 52.4457 84.7652 55.0227L58.5066 70.1819C54.0428 72.7589 46.8054 72.7589 42.3415 70.1819L16.0829 55.0227Z" fill="#FF536C"/>
<g filter="url(#filter0_d_1761_11736)">
<rect x="0.398254" width="48.5258" height="48.5258" rx="10.5" transform="matrix(0.866043 -0.49997 0.866043 0.49997 8.05335 47.7558)" fill="url(#paint0_linear_1761_11736)" stroke="url(#paint1_linear_1761_11736)" stroke-width="0.459855"/>
</g>
<g filter="url(#filter1_d_1761_11736)">
<path d="M17.9463 39.0352L36.0289 28.5961C43.3606 24.3635 55.2476 24.3635 62.5793 28.5961L80.6619 39.0352L54.6142 54.0724C51.6815 55.7655 46.9267 55.7655 43.9941 54.0724L17.9463 39.0352Z" fill="#FF2228"/>
</g>
<g filter="url(#filter2_b_1761_11736)">
<path d="M16.1091 37.9573C11.6527 35.4648 11.586 28.3319 15.3858 26.3321L42.3676 13.466C46.8315 10.889 54.0689 10.889 58.5328 13.466L85.3146 26.1988C89.4477 28.2653 89.2552 35.3803 84.7913 37.9573L58.5328 53.1165C54.0689 55.6935 46.8315 55.6935 42.3676 53.1165L16.1091 37.9573Z" fill="white" fill-opacity="0.5"/>
</g>
<g filter="url(#filter3_b_1761_11736)">
<rect x="0.398254" width="48.5258" height="48.5258" rx="10.5" transform="matrix(0.866043 -0.49997 0.866043 0.49997 8.07923 30.6903)" fill="white" fill-opacity="0.5" stroke="url(#paint2_linear_1761_11736)" stroke-width="0.459855"/>
</g>
<g filter="url(#filter4_i_1761_11736)">
<mask id="path-6-inside-1_1761_11736" fill="white">
<path d="M67.6738 28.9431C67.4075 29.1168 67.067 29.2554 66.6705 29.3396L53.7249 32.0311C52.9772 32.1848 52.1753 32.106 51.6159 31.8224L40.9209 26.4013C40.0436 25.9566 40.0147 25.1501 40.8565 24.601C41.6983 24.0519 43.0935 23.9671 43.9708 24.4118L53.7631 29.3754L65.5005 26.9341C66.6737 26.692 67.8864 27.0309 68.2097 27.6945C68.421 28.1339 68.1923 28.6049 67.6738 28.9431"/>
</mask>
<path d="M67.6738 28.9431C67.4075 29.1168 67.067 29.2554 66.6705 29.3396L53.7249 32.0311C52.9772 32.1848 52.1753 32.106 51.6159 31.8224L40.9209 26.4013C40.0436 25.9566 40.0147 25.1501 40.8565 24.601C41.6983 24.0519 43.0935 23.9671 43.9708 24.4118L53.7631 29.3754L65.5005 26.9341C66.6737 26.692 67.8864 27.0309 68.2097 27.6945C68.421 28.1339 68.1923 28.6049 67.6738 28.9431" fill="#FF788D"/>
<path d="M66.6705 29.3396L66.6919 29.3804L66.6924 29.3803L66.6705 29.3396ZM53.7249 32.0311L53.7459 32.072L53.7462 32.0719L53.7249 32.0311ZM53.7631 29.3754L53.7118 29.4089L53.7432 29.4248L53.7845 29.4162L53.7631 29.3754ZM65.5005 26.9341L65.4794 26.8932L65.4792 26.8932L65.5005 26.9341ZM68.2097 27.6945L68.2821 27.6804L68.282 27.6803L68.2097 27.6945ZM67.6191 28.9154C67.3615 29.0834 67.0323 29.2174 66.6487 29.2989L66.6924 29.3803C67.1017 29.2934 67.4534 29.1503 67.7285 28.9708L67.6191 28.9154ZM66.6492 29.2988L53.7035 31.9903L53.7462 32.0719L66.6919 29.3804L66.6492 29.2988ZM53.7038 31.9902C52.981 32.1388 52.2069 32.0624 51.6673 31.7889L51.5646 31.8559C52.1438 32.1495 52.9733 32.2308 53.7459 32.072L53.7038 31.9902ZM51.6673 31.7889L40.9722 26.3678L40.8695 26.4348L51.5646 31.8559L51.6673 31.7889ZM40.9722 26.3678C40.1262 25.939 40.0967 25.16 40.9112 24.6287L40.8018 24.5732C39.9327 25.1402 39.9609 25.9742 40.8695 26.4348L40.9722 26.3678ZM40.9112 24.6287C41.7257 24.0974 43.0735 24.0165 43.9195 24.4453L44.0222 24.3783C43.1136 23.9178 41.6709 24.0063 40.8018 24.5732L40.9112 24.6287ZM43.9195 24.4453L53.7118 29.4089L53.8145 29.3419L44.0222 24.3783L43.9195 24.4453ZM53.7845 29.4162L65.5219 26.9749L65.4792 26.8932L53.7418 29.3345L53.7845 29.4162ZM65.5217 26.9749C66.6556 26.741 67.8255 27.0686 68.1374 27.7087L68.282 27.6803C67.9472 26.9933 66.6918 26.643 65.4794 26.8932L65.5217 26.9749ZM68.1373 27.7086C68.3414 28.1329 68.1207 28.5882 67.6191 28.9154L67.7285 28.9708C68.2639 28.6216 68.5006 28.1349 68.2821 27.6804L68.1373 27.7086Z" fill="url(#paint3_linear_1761_11736)" mask="url(#path-6-inside-1_1761_11736)"/>
</g>
<defs>
<filter id="filter0_d_1761_11736" x="1.18057" y="26.208" width="98.486" height="70.2885" filterUnits="userSpaceOnUse" color-interpolation-filters="sRGB">
<feFlood flood-opacity="0" result="BackgroundImageFix"/>
<feColorMatrix in="SourceAlpha" type="matrix" values="0 0 0 0 0 0 0 0 0 0 0 0 0 0 0 0 0 0 127 0" result="hardAlpha"/>
<feOffset dy="15.3285"/>
<feGaussianBlur stdDeviation="6.13139"/>
<feComposite in2="hardAlpha" operator="out"/>
<feColorMatrix type="matrix" values="0 0 0 0 1 0 0 0 0 0.343982 0 0 0 0 0.448724 0 0 0 0.5 0"/>
<feBlend mode="normal" in2="BackgroundImageFix" result="effect1_dropShadow_1761_11736"/>
<feBlend mode="normal" in="SourceGraphic" in2="effect1_dropShadow_1761_11736" result="shape"/>
</filter>
<filter id="filter1_d_1761_11736" x="11.2018" y="23.889" width="76.2046" height="43.409" filterUnits="userSpaceOnUse" color-interpolation-filters="sRGB">
<feFlood flood-opacity="0" result="BackgroundImageFix"/>
<feColorMatrix in="SourceAlpha" type="matrix" values="0 0 0 0 0 0 0 0 0 0 0 0 0 0 0 0 0 0 127 0" result="hardAlpha"/>
<feOffset dy="5.21169"/>
<feGaussianBlur stdDeviation="3.37227"/>
<feComposite in2="hardAlpha" operator="out"/>
<feColorMatrix type="matrix" values="0 0 0 0 1 0 0 0 0 0.188235 0 0 0 0 0.219608 0 0 0 1 0"/>
<feBlend mode="normal" in2="BackgroundImageFix" result="effect1_dropShadow_1761_11736"/>
<feBlend mode="normal" in="SourceGraphic" in2="effect1_dropShadow_1761_11736" result="shape"/>
</filter>
<filter id="filter2_b_1761_11736" x="6.51289" y="5.40181" width="87.901" height="55.7784" filterUnits="userSpaceOnUse" color-interpolation-filters="sRGB">
<feFlood flood-opacity="0" result="BackgroundImageFix"/>
<feGaussianBlur in="BackgroundImageFix" stdDeviation="3.0657"/>
<feComposite in2="SourceAlpha" operator="in" result="effect1_backgroundBlur_1761_11736"/>
<feBlend mode="normal" in="SourceGraphic" in2="effect1_backgroundBlur_1761_11736" result="shape"/>
</filter>
<filter id="filter3_b_1761_11736" x="7.33784" y="3.01118" width="86.2232" height="54.9601" filterUnits="userSpaceOnUse" color-interpolation-filters="sRGB">
<feFlood flood-opacity="0" result="BackgroundImageFix"/>
<feGaussianBlur in="BackgroundImageFix" stdDeviation="3.0657"/>
<feComposite in2="SourceAlpha" operator="in" result="effect1_backgroundBlur_1761_11736"/>
<feBlend mode="normal" in="SourceGraphic" in2="effect1_backgroundBlur_1761_11736" result="shape"/>
</filter>
<filter id="filter4_i_1761_11736" x="40.2437" y="24.127" width="28.0444" height="8.32827" filterUnits="userSpaceOnUse" color-interpolation-filters="sRGB">
<feFlood flood-opacity="0" result="BackgroundImageFix"/>
<feBlend mode="normal" in="SourceGraphic" in2="BackgroundImageFix" result="shape"/>
<feColorMatrix in="SourceAlpha" type="matrix" values="0 0 0 0 0 0 0 0 0 0 0 0 0 0 0 0 0 0 127 0" result="hardAlpha"/>
<feOffset dy="0.806279"/>
<feGaussianBlur stdDeviation="0.173414"/>
<feComposite in2="hardAlpha" operator="arithmetic" k2="-1" k3="1"/>
<feColorMatrix type="matrix" values="0 0 0 0 1 0 0 0 0 1 0 0 0 0 1 0 0 0 1 0"/>
<feBlend mode="normal" in2="shape" result="effect1_innerShadow_1761_11736"/>
</filter>
<linearGradient id="paint0_linear_1761_11736" x1="9.18634" y1="41.0004" x2="7.68573" y2="19.5674" gradientUnits="userSpaceOnUse">
<stop stop-color="#FF6C7C"/>
<stop offset="1" stop-color="#FF7A90"/>
</linearGradient>
<linearGradient id="paint1_linear_1761_11736" x1="4.24445" y1="19.9252" x2="25.7501" y2="40.0953" gradientUnits="userSpaceOnUse">
<stop stop-color="white" stop-opacity="0.43"/>
<stop offset="0.846595" stop-color="white" stop-opacity="0.44"/>
<stop offset="1" stop-color="white" stop-opacity="0"/>
</linearGradient>
<linearGradient id="paint2_linear_1761_11736" x1="5.91232" y1="21.4598" x2="28.2748" y2="42.6213" gradientUnits="userSpaceOnUse">
<stop stop-color="white" stop-opacity="0.09"/>
<stop offset="0.846595" stop-color="white" stop-opacity="0.79"/>
<stop offset="1" stop-color="white" stop-opacity="0.17"/>
</linearGradient>
<linearGradient id="paint3_linear_1761_11736" x1="43.2822" y1="25.5625" x2="62.8382" y2="20.0825" gradientUnits="userSpaceOnUse">
<stop stop-color="white" stop-opacity="0.25"/>
<stop offset="1" stop-color="white" stop-opacity="0"/>
</linearGradient>
</defs>
</svg>
