<svg viewBox="0 0 18 20" fill="none" xmlns="http://www.w3.org/2000/svg">
<path d="M15.3274 3.92725C15.3136 3.82719 15.226 3.77188 15.1536 3.76581C15.0814 3.75974 13.552 3.64641 13.552 3.64641C13.552 3.64641 12.4899 2.59195 12.3734 2.47527C12.2567 2.35858 12.0289 2.39407 11.9405 2.42012C11.9274 2.42396 11.7084 2.49157 11.3461 2.60362C10.9912 1.58272 10.3652 0.644468 9.26354 0.644468C9.23317 0.644468 9.20184 0.645747 9.17051 0.647505C8.85723 0.233202 8.46914 0.0532227 8.13396 0.0532227C5.56789 0.0532227 4.34193 3.26104 3.95751 4.89124C2.96044 5.20021 2.25203 5.41983 2.16156 5.44828C1.605 5.62282 1.58742 5.64041 1.51437 6.16484C1.45923 6.56188 0.00292969 17.8242 0.00292969 17.8242L11.3507 19.9503L17.4994 18.6202C17.4994 18.6202 15.3409 4.02731 15.3274 3.92725ZM10.7189 2.79766C10.4339 2.88589 10.1099 2.98611 9.75872 3.0948C9.75904 3.02719 9.75936 2.96054 9.75936 2.88781C9.75936 2.25325 9.67129 1.7424 9.52999 1.33737C10.0976 1.40866 10.4756 2.05441 10.7189 2.79766ZM8.8259 1.46317C8.98366 1.85861 9.08628 2.42604 9.08628 3.19183C9.08628 3.23099 9.08596 3.26679 9.08564 3.30308C8.46115 3.49648 7.78263 3.70651 7.10251 3.91718C7.48437 2.44346 8.20013 1.7317 8.8259 1.46317ZM8.06347 0.741491C8.17423 0.741491 8.2858 0.779053 8.39257 0.852579C7.5702 1.23955 6.68869 2.21425 6.31642 4.16061C5.77233 4.32908 5.24054 4.49372 4.74888 4.64605C5.18492 3.16146 6.22036 0.741491 8.06347 0.741491Z" fill="#95BF46"/>
<path d="M15.1536 3.76579C15.0813 3.75972 13.552 3.64639 13.552 3.64639C13.552 3.64639 12.4899 2.59193 12.3733 2.47525C12.3297 2.43177 12.2709 2.40955 12.2093 2.39996L11.3513 19.9502L17.4994 18.6201C17.4994 18.6201 15.3409 4.02729 15.3273 3.92723C15.3136 3.82717 15.226 3.77186 15.1536 3.76579Z" fill="#5E8E3E"/>
<path d="M9.26327 7.16335L8.50515 9.41852C8.50515 9.41852 7.84086 9.064 7.02664 9.064C5.83296 9.064 5.77286 9.81317 5.77286 10.0019C5.77286 11.0319 8.45784 11.4266 8.45784 13.8392C8.45784 15.7373 7.25393 16.9596 5.6306 16.9596C3.68264 16.9596 2.68652 15.7472 2.68652 15.7472L3.20808 14.024C3.20808 14.024 4.23201 14.9031 5.0961 14.9031C5.66065 14.9031 5.89034 14.4586 5.89034 14.1338C5.89034 12.7902 3.6876 12.7302 3.6876 10.5225C3.6876 8.6644 5.0213 6.86621 7.71347 6.86621C8.75083 6.86621 9.26327 7.16335 9.26327 7.16335Z" fill="white"/>
<defs>
<rect width="17.5342" height="20" fill="white"/>
</defs>
</svg>
