<svg viewBox="0 0 20 20" fill="none" xmlns="http://www.w3.org/2000/svg">
<path d="M10.4867 8.87339V15.8067H9.19336V8.38672L10.4867 8.87339Z" fill="#EDEDF4"/>
<path d="M5.32031 8.22682C5.32031 6.45348 6.28698 5.48682 7.42031 5.48682C8.55365 5.48682 8.71365 5.64682 10.0003 6.29348C11.287 6.94015 11.6136 7.10015 12.2603 7.10015C12.907 7.10015 13.227 6.61348 13.227 5.64682H14.3536C14.5136 7.58015 13.387 8.38682 12.2536 8.38682C11.1203 8.38682 10.8003 8.22682 9.67365 7.58015C8.54698 6.93348 8.22031 6.77348 7.57365 6.77348C6.92698 6.77348 6.60698 7.26015 6.44698 8.38682L5.32031 8.22682Z" fill="#EDEDF4"/>
<path d="M10 20C4.48667 20 0 15.5133 0 10C0 4.48667 4.48667 0 10 0C15.5133 0 20 4.48667 20 10C20 15.5133 15.5133 20 10 20ZM10 0.646667C4.84 0.646667 0.646667 4.84 0.646667 10C0.646667 15.16 4.84 19.3533 10 19.3533C15.16 19.3533 19.3533 15.16 19.3533 10C19.3533 4.84 15.16 0.646667 10 0.646667Z" fill="#EDEDF4"/>
<defs>
<rect width="20" height="20" fill="white"/>
</defs>
</svg>
