<svg viewBox="0 0 34 20" fill="none" xmlns="http://www.w3.org/2000/svg">
<path d="M3.63989 0H30.8789C32.6028 0 33.9982 1.39547 33.9982 3.11929V13.5169C33.9982 15.2407 32.6028 16.6362 30.8789 16.6362H21.1106L22.4514 19.9197L16.5548 16.6362H3.65357C1.92975 16.6362 0.534279 15.2407 0.534279 13.5169V3.11929C0.520598 1.40915 1.91607 0 3.63989 0Z" fill="#9B5C8F"/>
<path d="M2.44026 2.8433C2.6307 2.58483 2.91637 2.4488 3.29726 2.42159C3.99103 2.36718 4.38552 2.69366 4.48075 3.40103C4.90245 6.24411 5.36496 8.65189 5.85468 10.6244L8.83379 4.9518C9.10586 4.43488 9.44594 4.16281 9.85404 4.13561C10.4526 4.0948 10.8199 4.47569 10.9695 5.27828C11.3096 7.08752 11.7449 8.62469 12.2618 9.9306C12.6155 6.47537 13.214 3.98597 14.0575 2.4488C14.2615 2.06791 14.5608 1.87746 14.9553 1.85026C15.2681 1.82305 15.5538 1.91827 15.8123 2.12232C16.0707 2.32637 16.2068 2.58483 16.234 2.89771C16.2476 3.14257 16.2068 3.34662 16.0979 3.55067C15.5674 4.5301 15.1321 6.1761 14.7784 8.46145C14.4383 10.6788 14.3159 12.4064 14.3975 13.6443C14.4247 13.9844 14.3703 14.2836 14.2343 14.5421C14.0711 14.8414 13.8262 15.0046 13.5133 15.0318C13.1596 15.059 12.7923 14.8958 12.4387 14.5285C11.1736 13.2362 10.1669 11.3045 9.43234 8.73351C8.54812 10.4747 7.89517 11.7806 7.47347 12.6513C6.67087 14.1884 5.99071 14.9774 5.41937 15.0182C5.05208 15.0454 4.73921 14.7326 4.46714 14.0796C3.77338 12.2976 3.0252 8.85594 2.2226 3.75471C2.16819 3.40103 2.24981 3.08815 2.44026 2.8433ZM31.6737 4.97901C31.184 4.122 30.463 3.60508 29.4972 3.40103C29.2387 3.34662 28.9938 3.31941 28.7626 3.31941C27.4567 3.31941 26.3956 3.99957 25.5658 5.3599C24.8584 6.51618 24.5048 7.79489 24.5048 9.19602C24.5048 10.2435 24.7224 11.1413 25.1577 11.8895C25.6474 12.7465 26.3684 13.2634 27.3342 13.4675C27.5927 13.5219 27.8376 13.5491 28.0688 13.5491C29.3883 13.5491 30.4494 12.8689 31.2656 11.5086C31.973 10.3387 32.3266 9.05999 32.3266 7.65885C32.3402 6.5978 32.109 5.71359 31.6737 4.97901ZM29.9597 8.74712C29.7692 9.64493 29.4291 10.3115 28.9258 10.7604C28.5313 11.1141 28.164 11.2637 27.824 11.1957C27.4975 11.1277 27.2254 10.842 27.0214 10.3115C26.8581 9.88979 26.7765 9.46809 26.7765 9.0736C26.7765 8.73351 26.8037 8.39343 26.8717 8.08056C26.9942 7.52282 27.2254 6.97869 27.5927 6.46177C28.0416 5.79521 28.5177 5.52314 29.0074 5.61836C29.3339 5.68638 29.606 5.97205 29.81 6.50258C29.9733 6.92428 30.0549 7.34598 30.0549 7.74047C30.0549 8.09416 30.0277 8.43424 29.9597 8.74712ZM23.158 4.97901C22.6683 4.122 21.9337 3.60508 20.9815 3.40103C20.7231 3.34662 20.4782 3.31941 20.2469 3.31941C18.941 3.31941 17.88 3.99957 17.0502 5.3599C16.3428 6.51618 15.9891 7.79489 15.9891 9.19602C15.9891 10.2435 16.2068 11.1413 16.6421 11.8895C17.1318 12.7465 17.8528 13.2634 18.8186 13.4675C19.0771 13.5219 19.3219 13.5491 19.5532 13.5491C20.8727 13.5491 21.9337 12.8689 22.7499 11.5086C23.4573 10.3387 23.811 9.05999 23.811 7.65885C23.811 6.5978 23.5933 5.71359 23.158 4.97901ZM21.4304 8.74712C21.24 9.64493 20.8999 10.3115 20.3966 10.7604C20.0021 11.1141 19.6348 11.2637 19.2947 11.1957C18.9682 11.1277 18.6962 10.842 18.4921 10.3115C18.3289 9.88979 18.2473 9.46809 18.2473 9.0736C18.2473 8.73351 18.2745 8.39343 18.3425 8.08056C18.4649 7.52282 18.6962 6.97869 19.0635 6.46177C19.5124 5.79521 19.9885 5.52314 20.4782 5.61836C20.8047 5.68638 21.0767 5.97205 21.2808 6.50258C21.444 6.92428 21.5256 7.34598 21.5256 7.74047C21.5393 8.09416 21.4984 8.43424 21.4304 8.74712Z" fill="white"/>
<defs>
<rect width="33.4641" height="20" fill="white" transform="translate(0.53418)"/>
</defs>
</svg>
