<svg viewBox="0 0 20 21" fill="none" xmlns="http://www.w3.org/2000/svg">
<path fill-rule="evenodd" clip-rule="evenodd" d="M19.6 10.7271C19.6 10.018 19.5364 9.33619 19.4182 8.68164H10V12.5498H15.3818C15.15 13.7998 14.4455 14.8589 13.3864 15.568V18.0771H16.6182C18.5091 16.3362 19.6 13.7725 19.6 10.7271Z" fill="#4285F4"/>
<path fill-rule="evenodd" clip-rule="evenodd" d="M9.99996 20.5004C12.7 20.5004 14.9636 19.6049 16.6181 18.0777L13.3863 15.5686C12.4909 16.1686 11.3454 16.5231 9.99996 16.5231C7.39542 16.5231 5.19087 14.764 4.40451 12.4004H1.0636V14.9913C2.70905 18.2595 6.09087 20.5004 9.99996 20.5004Z" fill="#34A853"/>
<path fill-rule="evenodd" clip-rule="evenodd" d="M4.40455 12.3997C4.20455 11.7997 4.09091 11.1588 4.09091 10.4997C4.09091 9.84061 4.20455 9.1997 4.40455 8.5997V6.00879H1.06364C0.386364 7.35879 0 8.88606 0 10.4997C0 12.1133 0.386364 13.6406 1.06364 14.9906L4.40455 12.3997Z" fill="#FBBC05"/>
<path fill-rule="evenodd" clip-rule="evenodd" d="M9.99996 4.47727C11.4681 4.47727 12.7863 4.98182 13.8227 5.97273L16.6909 3.10455C14.9591 1.49091 12.6954 0.5 9.99996 0.5C6.09087 0.5 2.70905 2.74091 1.0636 6.00909L4.40451 8.6C5.19087 6.23636 7.39542 4.47727 9.99996 4.47727Z" fill="#EA4335"/>
<defs>
<rect width="20" height="20" fill="white" transform="translate(0 0.5)"/>
</defs>
</svg>
