<svg viewBox="0 0 40 40" fill="none" xmlns="http://www.w3.org/2000/svg">
<path d="M40 20.0021C40 21.4942 39.8363 22.9468 39.5275 24.3436C37.6022 33.0432 30.013 39.6146 20.8217 39.9834C20.5502 39.9958 20.2746 40 19.999 40C16.6417 40 13.4749 39.1711 10.6979 37.7101C9.99327 37.3391 9.31142 36.9267 8.6607 36.4771C8.00786 36.0273 7.38409 35.5383 6.78927 35.0161C6.13026 34.4379 5.5106 33.8162 4.93446 33.1551C3.89824 31.9677 2.99674 30.6559 2.26102 29.2446C2.05793 28.8571 1.86727 28.4613 1.68904 28.0572C1.35123 27.2925 1.06316 26.5029 0.82069 25.6906C0.286 23.8877 0 21.977 0 20C0 19.0944 0.0601021 18.2033 0.176158 17.3308C0.354387 15.9921 0.665249 14.6969 1.09424 13.4577C1.26004 12.9789 1.44242 12.5065 1.64344 12.0443C3.44439 7.89556 6.61105 4.47622 10.5736 2.35416C10.6896 2.29199 10.8078 2.23189 10.9238 2.17179C11.0067 2.13034 11.0896 2.08683 11.1725 2.04745C13.8335 0.735672 16.8282 0 19.9948 0C20.2083 0 20.4176 0.00206979 20.6269 0.0103591C27.81 0.232098 34.0376 4.24205 37.3825 10.1088C39.0509 13.0287 40 16.4024 40 20.0021Z" fill="#30B5ED"/>
<path d="M37.3659 10.114C34.0051 4.24632 27.7479 0.234298 20.5308 0.0103708C20.3205 0.0020772 20.1081 0 19.8957 0C16.714 0 13.7031 0.736055 11.0315 2.04852C10.9482 2.08791 10.865 2.13146 10.7817 2.17292C10.665 2.23305 10.5464 2.29318 10.4298 2.35538C9.73222 2.72445 8.95759 2.9857 8.20384 3.34854C1.89456 7.82295 0.459884 10.6262 1.45728 12.0485C3.42294 14.8559 14.8504 12.2953 16.9681 6.61827C18.5548 6.45452 19.7958 5.25399 20.9639 4.59465C21.3596 6.38609 17.4199 7.12625 17.776 9.48581C17.0243 11.8723 20.1748 12.5503 21.5095 10.9164C22.434 10.1949 21.8343 8.40764 22.8005 8.05724C25.9739 7.17811 23.85 2.77214 21.2159 2.71201C32.5288 1.26063 37.4742 17.2216 27.217 22.1957C21.8052 24.1219 25.5761 22.0651 27.7313 19.5936C32.1082 16.4089 33.3659 1.68982 26.4195 11.0284C25.7156 13.5144 22.8213 12.9629 21.5199 14.5408C20.2226 17.8478 13.2429 15.8118 13.1242 19.631C15.8978 20.9143 11.7207 20.6531 10.3798 20.9455C8.42661 24.1551 16.8556 21.9967 18.307 21.3809C21.3137 22.2724 9.35116 26.4317 7.91439 26.328C6.43391 27.2984 2.23189 25.366 0.630629 25.7019C0.0746632 25.8179 -0.168964 26.2098 0.126717 27.0931C0.320367 27.6778 0.874253 28.0759 1.49477 28.0718H1.50517C2.19649 28.0676 2.90237 28.0551 3.59577 28.4263C3.20014 28.7435 2.61294 28.9923 2.07988 29.2577C1.04083 29.7802 0.201682 30.3691 1.39273 31.6546C2.11112 32.8944 3.32716 33.2697 4.766 33.1702C9.79677 32.824 17.5823 26.6929 16.6557 31.4555C11.727 35.7018 8.5557 33.8213 6.63173 35.0322C6.29438 35.2436 5.99662 35.5526 5.73219 36.0025C5.48647 37.5182 7.95186 37.7939 10.5588 37.7255C12.7765 37.6674 15.092 37.3626 15.9228 37.3626C16.7078 37.3626 16.1664 37.6343 12.9556 38.6502C15.7749 39.4837 18.3673 39.915 20.7307 40C29.9635 39.6289 37.5908 33.0562 39.5252 24.3521C39.8376 22.9546 40 21.5011 40 20.0083C39.9896 16.4089 39.0359 13.0334 37.3659 10.114ZM23.2815 35.7039C26.1363 33.813 28.2248 31.016 31.648 30.0622C35.1046 28.4138 35.5481 24.1572 38.0926 21.5633C37.7241 27.062 29.8406 34.5283 23.2815 35.7039ZM24.2081 38.0012C24.2955 38.022 24.3539 38.0717 24.3726 37.9556C24.3039 37.9266 24.2664 37.9681 24.2081 38.0012Z" fill="#F5F5F5"/>
<path d="M8.38814 23.2469C4.54748 23.4287 7.46868 19.7078 9.4939 20.6046C10.885 21.4074 10.1965 23.4027 8.38814 23.2469Z" fill="#F5F5F5"/>
</svg>
