<svg viewBox="0 0 33 33" fill="none" xmlns="http://www.w3.org/2000/svg">
<path d="M10.0065 12.0338C13.5908 8.21138 19.4092 8.21138 22.9935 12.0338L23.425 12.4974C23.606 12.6874 23.606 12.9989 23.425 13.1889L21.9495 14.762C21.8591 14.8608 21.7129 14.8608 21.6224 14.762L21.0308 14.1312C18.5253 11.4639 14.4747 11.4639 11.9692 14.1312L11.3358 14.8076C11.2453 14.9064 11.0992 14.9064 11.0087 14.8076L9.53322 13.2345C9.35226 13.0445 9.35226 12.733 9.53322 12.543L10.0065 12.0338ZM26.0489 15.2863L27.3643 16.6846C27.5452 16.8746 27.5452 17.1862 27.3643 17.3761L21.4415 23.6912C21.2605 23.8812 20.9682 23.8812 20.7942 23.6912L16.5905 19.2076C16.5487 19.162 16.4722 19.162 16.4304 19.2076L12.2267 23.6912C12.0457 23.8812 11.7534 23.8812 11.5794 23.6912L5.63572 17.3761C5.45476 17.1862 5.45476 16.8746 5.63572 16.6846L6.95112 15.2863C7.13208 15.0964 7.42439 15.0964 7.59839 15.2863L11.8021 19.7699C11.8439 19.8155 11.9204 19.8155 11.9622 19.7699L16.1659 15.2863C16.3469 15.0964 16.6392 15.0964 16.8132 15.2863L21.0169 19.7699C21.0587 19.8155 21.1352 19.8155 21.177 19.7699L25.3807 15.2863C25.5756 15.0964 25.8679 15.0964 26.0489 15.2863Z" stroke="transparent" fill="#ededf4"/>
</svg>
