<svg viewBox="0 0 20 20" fill="none" xmlns="http://www.w3.org/2000/svg">
    <path d="M17.5 10C17.5 5.85938 14.1406 2.5 10 2.5C5.85938 2.5 2.5 5.85938 2.5 10C2.5 14.1406 5.85938 17.5 10 17.5C14.1406 17.5 17.5 14.1406 17.5 10Z" fill="transparent" stroke="inherit" stroke-miterlimit="10"/>
    <path d="M9.77562 6.48634L9.99984 11.25L10.2237 6.48634C10.2251 6.45589 10.2202 6.42547 10.2094 6.39695C10.1987 6.36843 10.1822 6.34241 10.161 6.32047C10.1399 6.29854 10.1144 6.28115 10.0863 6.26937C10.0582 6.25759 10.028 6.25167 9.9975 6.25196V6.25196C9.96738 6.25225 9.93762 6.2586 9.91001 6.27064C9.8824 6.28267 9.85749 6.30015 9.83678 6.32203C9.81607 6.3439 9.79998 6.36973 9.78948 6.39796C9.77897 6.42619 9.77426 6.45625 9.77562 6.48634V6.48634Z" fill="inherit" stroke="inherit" stroke-linecap="round" stroke-linejoin="round"/>
    <path d="M10 14.3716C9.84549 14.3716 9.69444 14.3258 9.56596 14.2399C9.43749 14.1541 9.33735 14.0321 9.27822 13.8893C9.21909 13.7465 9.20362 13.5895 9.23376 13.4379C9.26391 13.2864 9.33831 13.1472 9.44757 13.0379C9.55683 12.9286 9.69604 12.8542 9.84759 12.8241C9.99914 12.7939 10.1562 12.8094 10.299 12.8686C10.4417 12.9277 10.5637 13.0278 10.6496 13.1563C10.7354 13.2848 10.7813 13.4358 10.7813 13.5903C10.7813 13.7975 10.6989 13.9962 10.5524 14.1428C10.4059 14.2893 10.2072 14.3716 10 14.3716Z" stroke="transparent" fill="inherit"/>
</svg>
