<svg viewBox="0 0 24 25" fill="none" xmlns="http://www.w3.org/2000/svg">
<path d="M10.7127 1.57686C12.4393 1.37483 14.2145 1.58202 15.8439 2.19186C17.3146 2.74194 18.6702 3.60772 19.7748 4.72522C18.83 5.66202 17.8939 6.60748 16.9504 7.54545C16.3422 6.94897 15.6334 6.45209 14.8534 6.10709C13.817 5.64256 12.6646 5.43819 11.5318 5.51647C10.2522 5.59897 8.99801 6.04358 7.95457 6.78912C6.65989 7.70202 5.69028 9.06772 5.26395 10.5942C4.94426 11.714 4.91778 12.9138 5.17582 14.0489C5.38325 14.9772 5.78731 15.8604 6.34887 16.6277C6.87012 17.3414 7.52778 17.9552 8.2759 18.4256C9.13817 18.9703 10.1218 19.3214 11.1343 19.4447C12.002 19.5537 12.8898 19.4969 13.7371 19.2806C13.8301 19.2358 13.8833 19.3418 13.9417 19.3945C14.8965 20.3543 15.8561 21.3094 16.8111 22.2687C15.0929 23.103 13.1551 23.4841 11.2494 23.3496C9.6545 23.2439 8.08371 22.7852 6.6859 22.0094C6.10301 21.6907 5.55551 21.3105 5.03754 20.8952C4.62832 20.5481 4.22403 20.1919 3.87223 19.7855C3.27668 19.1435 2.76575 18.4235 2.34481 17.6557C2.25106 17.4747 2.14231 17.3013 2.0659 17.1119C1.96114 16.8998 1.86973 16.6816 1.77879 16.4634C1.66254 16.1524 1.53832 15.8437 1.45348 15.5224C1.4434 15.48 1.41762 15.4444 1.39442 15.4087C1.19989 14.737 1.0909 14.0416 1.03254 13.3453C0.971137 12.4697 1.00137 11.5863 1.14457 10.7196C1.43004 8.95053 2.162 7.25694 3.25067 5.83428C3.95661 4.9085 4.80996 4.09498 5.76926 3.43545C7.2327 2.42506 8.94575 1.77866 10.7127 1.57686ZM11.8654 2.75998C11.7318 2.78319 11.6085 2.84811 11.5049 2.93412C11.2611 3.14342 11.1735 3.51561 11.3134 3.80787C11.4618 4.15991 11.9031 4.34928 12.2593 4.20631C12.621 4.0835 12.8401 3.6553 12.722 3.29084C12.6259 2.9292 12.2317 2.68639 11.8654 2.75998ZM5.58504 5.38475C5.46012 5.39131 5.33684 5.42975 5.22973 5.49444C4.9609 5.6592 4.81067 6.00397 4.89317 6.31147C4.96559 6.64147 5.28645 6.89881 5.62582 6.88827C5.97809 6.89787 6.30739 6.62131 6.36504 6.27491C6.41754 6.0328 6.32731 5.76983 6.15082 5.59873C6.00457 5.45037 5.79223 5.37327 5.58504 5.38475ZM2.86723 11.7597C2.71207 11.7886 2.56629 11.8671 2.45614 11.9801C2.23465 12.2079 2.18145 12.5794 2.33848 12.8571C2.50629 13.1843 2.93567 13.346 3.27551 13.1997C3.62754 13.0706 3.83778 12.6508 3.72223 12.2925C3.62754 11.9313 3.23332 11.684 2.86723 11.7597ZM5.49176 18.1359C5.22246 18.1816 4.98832 18.3872 4.90957 18.6487C4.81887 18.9213 4.90653 19.2384 5.11817 19.4306C5.26231 19.559 5.45567 19.6345 5.6495 19.6256C5.91106 19.6197 6.16465 19.4646 6.28512 19.2319C6.40067 19.0249 6.40582 18.7626 6.30176 18.5498C6.16536 18.2503 5.81403 18.0733 5.49176 18.1359ZM11.8682 20.7616C11.5925 20.809 11.3544 21.0211 11.2801 21.2913C11.1894 21.5859 11.3066 21.93 11.5593 22.1067C11.7435 22.2424 11.991 22.2865 12.2101 22.2206C12.4354 22.1557 12.625 21.9806 12.704 21.7594C12.8204 21.4608 12.7124 21.0956 12.456 20.9048C12.2914 20.7771 12.0728 20.7251 11.8682 20.7616Z" fill="#A0A0A0"/>
<path d="M11.8653 2.75926C12.2316 2.68567 12.6258 2.92848 12.7219 3.29012C12.8401 3.65457 12.6209 4.08278 12.2593 4.20559C11.903 4.34856 11.4617 4.15918 11.3133 3.80715C11.1734 3.51489 11.2611 3.1427 11.5048 2.9334C11.6084 2.84739 11.7317 2.78246 11.8653 2.75926Z" fill="#C1C1C1"/>
<path d="M2.86708 11.7598C3.23318 11.6841 3.6274 11.9313 3.72208 12.2925C3.83763 12.6509 3.6274 13.0706 3.27536 13.1998C2.93552 13.346 2.50615 13.1843 2.33833 12.8571C2.1813 12.5794 2.23451 12.2079 2.45599 11.9801C2.56615 11.8671 2.71193 11.7886 2.86708 11.7598Z" fill="#C1C1C1"/>
<path d="M19.7747 4.72523L19.7773 4.72266C20.3548 5.31141 20.8779 5.95547 21.315 6.65555C22.159 7.99523 22.7067 9.52008 22.9057 11.0911C23.0386 12.143 23.0292 13.2145 22.8577 14.2615C22.56 16.1367 21.7575 17.9273 20.5631 19.4027C19.5717 20.6327 18.3162 21.6537 16.8973 22.3502L16.8825 22.3441C16.8588 22.3184 16.8349 22.2935 16.811 22.2687C15.8559 21.3094 14.8964 20.3543 13.9416 19.3945C13.8832 19.3418 13.83 19.2359 13.7369 19.2806C12.8897 19.497 12.0019 19.5537 11.1342 19.4447C10.1217 19.3214 9.13804 18.9703 8.27578 18.4256C7.52765 17.9552 6.86999 17.3414 6.34874 16.6277C5.78718 15.8604 5.38312 14.9773 5.1757 14.0489C4.91765 12.9138 4.94413 11.7141 5.26382 10.5942C5.69015 9.06773 6.65976 7.70203 7.95445 6.78914C8.99788 6.04359 10.252 5.59898 11.5317 5.51648C12.6644 5.4382 13.8169 5.64258 14.8533 6.10711C15.6333 6.45211 16.342 6.94898 16.9502 7.54547C17.8938 6.6075 18.8299 5.66203 19.7747 4.72523ZM11.5305 9.03703C11.033 9.10383 10.5487 9.27797 10.1271 9.55125C9.58617 9.88992 9.14835 10.3852 8.86382 10.9554C8.5221 11.6398 8.42695 12.4369 8.57085 13.1859C8.66296 13.6512 8.85281 14.0972 9.12304 14.487C9.3089 14.757 9.53671 14.9946 9.77109 15.2224C11.1148 16.568 12.4573 17.9145 13.8021 19.2586C14.9527 18.9523 16.0209 18.3459 16.8736 17.5148C17.9309 16.4991 18.6469 15.1373 18.8965 13.6931C18.9021 13.6687 18.9016 13.6249 18.9398 13.6322C19.6343 13.6331 20.3287 13.632 21.0234 13.6334C21.4697 13.6263 21.8876 13.2872 21.9787 12.8491C21.9839 12.8208 21.9787 12.7948 21.963 12.7706C21.9916 12.6368 22.0118 12.4992 21.9954 12.3621L21.9898 12.3715C21.9417 11.8948 21.5013 11.5015 21.023 11.5003C19.133 11.4987 17.243 11.5001 15.3527 11.4987C15.2018 10.9812 14.9191 10.5066 14.5552 10.1105C13.9505 9.46594 13.0959 9.05555 12.2109 9.01312C11.9841 9.01359 11.7553 9.00047 11.5305 9.03703ZM18.2423 18.138C17.9461 18.1863 17.6946 18.4331 17.64 18.7282C17.6053 18.919 17.6367 19.1271 17.7509 19.2872C17.8859 19.5028 18.1446 19.6331 18.398 19.6212C18.593 19.6219 18.7795 19.5286 18.9173 19.3948C19.0315 19.2635 19.1154 19.0978 19.1205 18.9213C19.1407 18.6548 19.0019 18.3799 18.772 18.2426C18.6192 18.138 18.423 18.1078 18.2423 18.138Z" fill="#686868"/>
<path d="M5.58485 5.38393C5.79204 5.37245 6.00438 5.44956 6.15063 5.59792C6.32712 5.76901 6.41735 6.03198 6.36485 6.27409C6.30719 6.6205 5.9779 6.89706 5.62563 6.88745C5.28626 6.898 4.9654 6.64065 4.89298 6.31065C4.81048 6.00315 4.96071 5.65839 5.22954 5.49362C5.33665 5.42893 5.45993 5.3905 5.58485 5.38393Z" fill="#C3C3C3"/>
<path d="M11.5306 9.03559C11.7553 8.99903 11.9841 9.01215 12.2109 9.01168C13.0959 9.05411 13.9505 9.4645 14.5552 10.109C14.9192 10.5051 15.2018 10.9797 15.3527 11.4972C14.2355 11.497 13.118 11.497 12.0005 11.497C11.7148 11.4944 11.4326 11.624 11.2456 11.8394C11.1047 12 11.0173 12.2062 11.0009 12.4193C10.973 12.7514 11.1265 13.0919 11.392 13.293C11.5706 13.4315 11.797 13.5039 12.023 13.4993C14.9923 13.4983 17.9618 13.4979 20.9311 13.5C21.0427 13.5009 21.1559 13.4964 21.2639 13.4653C21.597 13.3757 21.8738 13.1027 21.9631 12.7692C21.9788 12.7933 21.9839 12.8193 21.9788 12.8477C21.8876 13.2857 21.4697 13.6249 21.0234 13.6319C20.3288 13.6305 19.6343 13.6317 18.9399 13.6307C18.9017 13.6235 18.9021 13.6673 18.8965 13.6917C18.6469 15.1359 17.9309 16.4976 16.8736 17.5134C16.0209 18.3445 14.9527 18.9508 13.8021 19.2572C12.4573 17.913 11.1148 16.5665 9.7711 15.221C9.53673 14.9932 9.30892 14.7555 9.12306 14.4855C8.85282 14.0957 8.66298 13.6497 8.57087 13.1845C8.42696 12.4354 8.52212 11.6383 8.86384 10.9539C9.14837 10.3837 9.58618 9.88848 10.1271 9.54981C10.5488 9.27653 11.033 9.10239 11.5306 9.03559Z" fill="#474747"/>
<path d="M11.2457 11.8405C11.4327 11.6251 11.7149 11.4955 12.0006 11.4981C13.1181 11.4981 14.2356 11.4981 15.3529 11.4983C17.2431 11.4997 19.1331 11.4983 21.0231 11.5C21.5014 11.5011 21.9418 11.8944 21.9899 12.3711C21.9854 12.3789 21.9763 12.3939 21.9716 12.4014C21.8854 11.9675 21.4661 11.6242 21.0231 11.6268C18.0941 11.6291 15.1651 11.6296 12.2361 11.6307C12.055 11.6338 11.8672 11.612 11.6936 11.6767C11.4812 11.7432 11.3014 11.89 11.1716 12.0681C11.0933 12.1747 11.0687 12.3081 11.001 12.4204C11.0174 12.2073 11.1048 12.0011 11.2457 11.8405Z" fill="#BFBFBF"/>
<path d="M5.49176 18.1356C5.81402 18.073 6.16535 18.25 6.30176 18.5495C6.40582 18.7623 6.40066 19.0246 6.28512 19.2315C6.16465 19.4643 5.91105 19.6194 5.64949 19.6253C5.45566 19.6342 5.2623 19.5587 5.11816 19.4303C4.90652 19.2381 4.81887 18.921 4.90957 18.6484C4.98832 18.3868 5.22246 18.1813 5.49176 18.1356Z" fill="#BFBFBF"/>
<path d="M11.6934 11.6769C11.8671 11.6122 12.0548 11.634 12.236 11.631C15.1649 11.6298 18.0939 11.6293 21.0229 11.627C21.4659 11.6244 21.8852 11.9677 21.9714 12.4016C21.9761 12.3941 21.9853 12.3791 21.9897 12.3713L21.9953 12.362C22.0117 12.4991 21.9916 12.6367 21.963 12.7705C21.8737 13.104 21.5969 13.377 21.2639 13.4666C21.1558 13.4977 21.0426 13.5022 20.931 13.5013C17.9617 13.4992 14.9922 13.4996 12.0229 13.5006C11.797 13.5052 11.5706 13.4328 11.392 13.2943C11.1264 13.0932 10.9729 12.7527 11.0008 12.4206C11.0685 12.3083 11.0932 12.1749 11.1714 12.0683C11.3013 11.8902 11.481 11.7435 11.6934 11.6769Z" fill="#B0B0B0"/>
<path d="M1.39429 15.4082C1.41749 15.4438 1.44327 15.4795 1.45335 15.5219C1.53819 15.8432 1.66241 16.1519 1.77866 16.4629C1.8696 16.6811 1.96101 16.8993 2.06577 17.1114C2.14218 17.3008 2.25093 17.4742 2.34468 17.6552C2.76562 18.423 3.27655 19.143 3.8721 19.7849C4.2239 20.1913 4.62819 20.5476 5.03741 20.8947C5.55538 21.31 6.10288 21.6902 6.68577 22.0089C8.08358 22.7847 9.65437 23.2434 11.2493 23.3491C13.155 23.4836 15.0928 23.1025 16.811 22.2681C16.8349 22.293 16.8588 22.3178 16.8825 22.3436L16.8832 22.3579C15.8913 22.8508 14.8235 23.1906 13.7294 23.3636C12.3956 23.5722 11.0233 23.5391 9.70241 23.2581C8.11124 22.9218 6.59882 22.222 5.30976 21.2305C3.82101 20.0908 2.63038 18.565 1.89116 16.8414C1.69382 16.3757 1.5178 15.8987 1.39429 15.4082Z" fill="#939393"/>
<path d="M18.2424 18.1381C18.4231 18.1078 18.6193 18.1381 18.7721 18.2426C19.002 18.38 19.1408 18.6549 19.1206 18.9214C19.1155 19.0978 19.0316 19.2636 18.9174 19.3948C18.7796 19.5286 18.593 19.6219 18.398 19.6212C18.1447 19.6332 17.8859 19.5028 17.7509 19.2872C17.6368 19.1271 17.6054 18.919 17.6401 18.7282C17.6947 18.4332 17.9462 18.1864 18.2424 18.1381Z" fill="#767676"/>
<path d="M11.868 20.7614C12.0726 20.7249 12.2913 20.7769 12.4559 20.9046C12.7123 21.0954 12.8203 21.4606 12.7038 21.7592C12.6248 21.9804 12.4352 22.1555 12.21 22.2204C11.9909 22.2863 11.7433 22.2422 11.5591 22.1065C11.3065 21.9298 11.1893 21.5857 11.28 21.2911C11.3543 21.0209 11.5924 20.8088 11.868 20.7614Z" fill="#BEBEBE"/>
</svg>
