<svg viewBox="0 0 25 24" fill="none" xmlns="http://www.w3.org/2000/svg">
<path d="M16.25 8.25H18.125C18.6223 8.25 19.0992 8.44754 19.4508 8.79917C19.8025 9.15081 20 9.62772 20 10.125V17.875C20 18.3723 19.8025 18.8492 19.4508 19.2008C19.0992 19.5525 18.6223 19.75 18.125 19.75H6.875C6.37772 19.75 5.90081 19.5525 5.54917 19.2008C5.19754 18.8492 5 18.3723 5 17.875V10.125C5 9.62772 5.19754 9.15081 5.54917 8.79917C5.90081 8.44754 6.37772 8.25 6.875 8.25H8.75" stroke="inherit" stroke-width="1.2" stroke-linecap="round" stroke-linejoin="round"/>
<path d="M8.75 12.75L12.5 16.5L16.25 12.75" stroke="inherit" stroke-width="1.2" stroke-linecap="round" stroke-linejoin="round"/>
<path d="M12.5 4.5V15.75" stroke="inherit" stroke-width="1.2" stroke-linecap="round" stroke-linejoin="round"/>
</svg>
