<svg viewBox="0 0 20 21" fill="none" xmlns="http://www.w3.org/2000/svg">
<path fill-rule="evenodd" clip-rule="evenodd" d="M13.0764 3.14886C13.5094 2.71643 14.0783 2.5 14.6448 2.5C15.2113 2.5 15.7802 2.71643 16.2132 3.14886L17.3504 4.28467C17.7833 4.71709 18 5.28536 18 5.85115C18 6.41695 17.7833 6.98521 17.3504 7.41764L16.4086 8.35823L7.23857 17.5366C6.6209 18.1535 5.78317 18.5 4.90967 18.5H3.00004C2.44775 18.5 2.00003 18.0523 2.00004 17.5L2.00003 15.6073C1.99645 14.73 2.34387 13.8878 2.96477 13.2677L11.0882 5.13515L13.0764 3.14886ZM15.3619 7.28363L16.2891 6.35761C16.4292 6.21761 16.4991 6.03562 16.4991 5.85115C16.4991 5.66669 16.4292 5.4847 16.2891 5.3447L15.1519 4.20889C15.0117 4.06889 14.8295 3.99911 14.6448 3.99911C14.4601 3.99911 14.2779 4.06889 14.1377 4.20889L13.2106 5.13491L15.3619 7.28363ZM12.135 6.20975L4.02604 14.3277C3.68981 14.6635 3.50091 15.119 3.50091 15.5939L3.50019 16.7007C3.50009 16.8665 3.63443 17.0009 3.80019 17.0009H4.90967C5.38512 17.0009 5.8411 16.8123 6.1773 16.4765L14.2863 8.35847L12.135 6.20975Z" stroke="transparent" fill="inherit"/>
</svg>
