<svg viewBox="0 0 32 33" fill="none" xmlns="http://www.w3.org/2000/svg">
<path d="M7.01813 7.99917C7.48676 7.53055 8.24656 7.53055 8.71519 7.99918L16 15.284L23.2848 7.99921C23.7534 7.53058 24.5132 7.53058 24.9819 7.99921C25.4505 8.46784 25.4505 9.22764 24.9819 9.69627L17.697 16.9811L24.9818 24.2659C25.4505 24.7345 25.4505 25.4943 24.9818 25.963C24.5132 26.4316 23.7534 26.4316 23.2848 25.9629L16 18.6781L8.71515 25.9629C8.24652 26.4315 7.48672 26.4315 7.0181 25.9629C6.54947 25.4943 6.54947 24.7345 7.0181 24.2658L14.3029 16.9811L7.01813 9.69623C6.5495 9.2276 6.5495 8.4678 7.01813 7.99917Z" fill="inherit"/>
</svg>
