<svg viewBox="0 0 32 32" fill="none" xmlns="http://www.w3.org/2000/svg">
<path d="M25.7143 22.8572C26.3454 22.8572 26.8571 23.3689 26.8571 24C26.8571 24.6312 26.3454 25.1429 25.7143 25.1429H6.28568C5.6545 25.1429 5.14282 24.6312 5.14282 24C5.14282 23.3689 5.6545 22.8572 6.28568 22.8572H25.7143ZM25.7143 14.8572C26.3454 14.8572 26.8571 15.3689 26.8571 16C26.8571 16.6312 26.3454 17.1429 25.7143 17.1429H6.28568C5.6545 17.1429 5.14282 16.6312 5.14282 16C5.14282 15.3689 5.6545 14.8572 6.28568 14.8572H25.7143ZM25.7143 6.85718C26.3454 6.85718 26.8571 7.36885 26.8571 8.00003C26.8571 8.63122 26.3454 9.14289 25.7143 9.14289H6.28568C5.6545 9.14289 5.14282 8.63122 5.14282 8.00003C5.14282 7.36885 5.6545 6.85718 6.28568 6.85718H25.7143Z" fill="inherit"/>
</svg>
