<svg viewBox="0 0 30 30" fill="none" xmlns="http://www.w3.org/2000/svg">
<path d="M6.61578 7.50013C4.79656 9.53195 3.77803 12.1558 3.74996 14.8829C3.68082 21.1144 8.76852 26.2384 15 26.2501C21.2226 26.2619 26.25 21.221 26.25 15.0001C26.25 8.87474 21.3545 3.89017 15.2636 3.75013C15.2294 3.74903 15.1952 3.75484 15.1632 3.76722C15.1312 3.77961 15.1021 3.7983 15.0775 3.8222C15.0528 3.84609 15.0333 3.8747 15.02 3.90631C15.0067 3.93792 14.9999 3.97189 15 4.00619V8.90638" fill="transparent" stroke="inherit" stroke-linecap="round" stroke-linejoin="round"/>
<path d="M13.6746 16.3272L9.04572 9.70607C8.98168 9.61434 8.95197 9.50299 8.9618 9.39154C8.97164 9.2801 9.02038 9.17567 9.09949 9.09656C9.1786 9.01745 9.28302 8.96871 9.39447 8.95887C9.50591 8.94904 9.61726 8.97875 9.709 9.04279L16.3301 13.6717C16.7362 13.9642 17.0109 14.4048 17.0946 14.8982C17.1784 15.3917 17.0645 15.8982 16.7777 16.3084C16.4909 16.7185 16.0541 16.9992 15.5619 17.0898C15.0696 17.1804 14.5615 17.0736 14.1475 16.7924C13.9644 16.6655 13.8045 16.5082 13.6746 16.3272Z" stroke="transparent" fill="inherit"/>
</svg>
