<svg viewBox="0 0 24 19" fill="none" xmlns="http://www.w3.org/2000/svg">
<path d="M23.9973 9.98535C23.9906 10.5874 23.9715 11.183 23.94 11.7721C23.9 12.3948 23.845 13.0487 23.775 13.7336C23.705 14.4186 23.61 14.9998 23.49 15.4772C23.35 16.0169 23.09 16.4839 22.71 16.8783C22.33 17.2727 21.88 17.5425 21.36 17.6878C20.9 17.8124 20.155 17.911 19.125 17.9836C18.095 18.0563 17.05 18.1134 15.99 18.1549C14.75 18.1964 13.42 18.2171 12 18.2171H10.77C10.39 18.2171 9.955 18.212 9.465 18.2016C8.975 18.1912 8.46 18.1756 7.92 18.1549C7.92638 18.14 7.9327 18.125 7.93896 18.1101C6.9033 18.0688 5.88198 18.0127 4.875 17.9417C3.845 17.869 3.1 17.7704 2.64 17.6459C2.12 17.5006 1.67 17.2307 1.29 16.8363C0.91 16.442 0.65 15.9749 0.51 15.4352C0.39 14.9578 0.295 14.3766 0.225 13.6917C0.155 13.0067 0.1 12.3528 0.06 11.7301C0.0299233 11.1682 0.0111542 10.6005 0.00369271 10.0269C0.0024617 10.0274 0.0012308 10.028 0 10.0285V9.4992C0 8.73119 0.020001 7.97356 0.060001 7.22631C0.100001 6.6036 0.155002 5.94975 0.225002 5.26477C0.295002 4.57979 0.39 3.99859 0.51 3.52118C0.65 2.98149 0.909999 2.51446 1.29 2.12008C1.67 1.72569 2.12 1.45585 2.64 1.31055C3.1 1.18601 3.845 1.08742 4.875 1.01477C5.905 0.942117 6.95 0.885035 8.01 0.843521C9.25 0.802007 10.58 0.78125 12 0.78125C13.42 0.78125 14.75 0.802007 15.99 0.843521C17.05 0.885035 18.095 0.942117 19.125 1.01477C20.155 1.08742 20.9 1.18601 21.36 1.31055C21.88 1.45585 22.33 1.72569 22.71 2.12008C23.09 2.51446 23.35 2.98149 23.49 3.52118C23.61 3.99859 23.705 4.57979 23.775 5.26477C23.845 5.94975 23.9 6.6036 23.94 7.22631C23.98 7.97356 24 8.73119 24 9.4992V9.98652C23.9991 9.98613 23.9982 9.98574 23.9973 9.98535Z" fill="#FC0D1C"/>
<path d="M9.6001 13.1952L15.8401 9.45892L9.6001 5.72266V13.1952Z" fill="white"/>
</svg>
