<svg viewBox="0 0 250 47" fill="none" xmlns="http://www.w3.org/2000/svg">
<g clip-path="url(#clip0_2294_13767)">
<path d="M61.7965 12.7969C62.5374 11.7406 63.5526 10.865 64.8419 10.17C66.1595 9.44728 67.6544 9.08594 69.3286 9.08594C71.2762 9.08594 73.0323 9.57239 74.5964 10.5453C76.188 11.5182 77.4365 12.9081 78.3418 14.7149C79.2746 16.4939 79.7413 18.5649 79.7413 20.9276C79.7413 23.2904 79.2746 25.3891 78.3418 27.2238C77.4365 29.0306 76.188 30.4344 74.5964 31.4351C73.0323 32.4358 71.2762 32.9361 69.3286 32.9361C67.6544 32.9361 66.1729 32.5887 64.8835 31.8938C63.6212 31.1988 62.5922 30.3232 61.7965 29.2669V43.5687H56.0344V9.46122H61.7965V12.7969ZM73.8557 20.9276C73.8557 19.5378 73.5676 18.3425 72.9914 17.3418C72.4427 16.3133 71.7019 15.535 70.7691 15.0068C69.8632 14.4787 68.8753 14.2145 67.8055 14.2145C66.7626 14.2145 65.7753 14.4925 64.8419 15.0485C63.9367 15.5766 63.1958 16.3549 62.6196 17.3835C62.0709 18.412 61.7965 19.6212 61.7965 21.011C61.7965 22.4009 62.0709 23.6101 62.6196 24.6386C63.1958 25.6671 63.9367 26.4593 64.8419 27.0153C65.7753 27.5434 66.7626 27.8075 67.8055 27.8075C68.8753 27.8075 69.8632 27.5295 70.7691 26.9736C71.7019 26.4176 72.4427 25.6254 72.9914 24.5969C73.5676 23.5684 73.8557 22.3454 73.8557 20.9276Z" fill="#EDEDF4"/>
<path d="M94.661 32.7928C92.4432 32.7928 90.4466 32.3093 88.672 31.3422C86.8973 30.3476 85.4973 28.9522 84.4712 27.1563C83.4729 25.3603 82.9741 23.288 82.9741 20.9394C82.9741 18.5908 83.4872 16.5185 84.5126 14.7226C85.5665 12.9265 86.9944 11.5451 88.7968 10.578C90.5993 9.58327 92.6094 9.08594 94.8272 9.08594C97.0457 9.08594 99.0558 9.58327 100.858 10.578C102.66 11.5451 104.074 12.9265 105.1 14.7226C106.154 16.5185 106.681 18.5908 106.681 20.9394C106.681 23.288 106.14 25.3603 105.059 27.1563C104.005 28.9522 102.563 30.3476 100.733 31.3422C98.931 32.3093 96.9073 32.7928 94.661 32.7928ZM94.661 27.7365C95.7149 27.7365 96.6989 27.4878 97.6137 26.9904C98.557 26.4655 99.3056 25.6918 99.86 24.6695C100.414 23.6472 100.692 22.4038 100.692 20.9394C100.692 18.7566 100.11 17.0849 98.9452 15.9244C97.8078 14.7364 96.4078 14.1423 94.7444 14.1423C93.0804 14.1423 91.6804 14.7364 90.5437 15.9244C89.4348 17.0849 88.8797 18.7566 88.8797 20.9394C88.8797 23.1222 89.4205 24.8076 90.5023 25.9958C91.6112 27.1563 92.9976 27.7365 94.661 27.7365Z" fill="#EDEDF4"/>
<path d="M116.379 2.62012V32.7925H110.991V2.62012H116.379Z" fill="#EDEDF4"/>
<path d="M143.319 10.1631V33.5742H137.563V30.6161C136.829 31.6303 135.863 32.4332 134.665 33.0248C133.495 33.5882 132.217 33.87 130.829 33.87C129.06 33.87 127.495 33.4896 126.134 32.729C124.774 31.9401 123.699 30.7992 122.91 29.3061C122.148 27.7848 121.767 25.9818 121.767 23.897V10.1631H127.482V23.0518C127.482 24.9112 127.931 26.348 128.828 27.3622C129.727 28.3482 130.951 28.8413 132.502 28.8413C134.081 28.8413 135.319 28.3482 136.217 27.3622C137.114 26.348 137.563 24.9112 137.563 23.0518V10.1631H143.319Z" fill="#EDEDF4"/>
<path d="M157.834 32.7928C155.922 32.7928 154.207 32.4613 152.689 31.7982C151.171 31.1074 149.963 30.1818 149.063 29.0213C148.192 27.8608 147.713 26.576 147.629 25.1669H153.575C153.688 26.051 154.123 26.7832 154.882 27.3635C155.669 27.9437 156.639 28.2338 157.792 28.2338C158.916 28.2338 159.788 28.0128 160.406 27.5707C161.052 27.1286 161.376 26.5622 161.376 25.8714C161.376 25.1254 160.982 24.5728 160.195 24.2136C159.436 23.8268 158.214 23.4123 156.526 22.9702C154.784 22.5558 153.35 22.1275 152.226 21.6854C151.129 21.2433 150.173 20.5664 149.358 19.6546C148.571 18.7428 148.178 17.5132 148.178 15.9659C148.178 14.6949 148.543 13.5344 149.274 12.4845C150.033 11.4346 151.101 10.6056 152.479 9.99775C153.884 9.38985 155.529 9.08594 157.412 9.08594C160.195 9.08594 162.416 9.77668 164.074 11.1582C165.733 12.5121 166.647 14.3495 166.815 16.6705H161.165C161.081 15.7587 160.687 15.0403 159.985 14.5153C159.31 13.9627 158.396 13.6864 157.243 13.6864C156.175 13.6864 155.346 13.8798 154.755 14.2666C154.193 14.6535 153.912 15.1922 153.912 15.8831C153.912 16.6567 154.305 17.2507 155.093 17.6652C155.88 18.052 157.103 18.4527 158.761 18.8671C160.448 19.2816 161.839 19.7099 162.936 20.1519C164.032 20.594 164.974 21.2848 165.761 22.2242C166.577 23.136 166.998 24.3518 167.026 25.8714C167.026 27.1977 166.647 28.3858 165.888 29.4358C165.157 30.4857 164.089 31.3146 162.683 31.9225C161.306 32.5027 159.689 32.7928 157.834 32.7928Z" fill="#EDEDF4"/>
<path d="M180.331 12.7969C181.072 11.7406 182.087 10.865 183.377 10.1701C184.694 9.44734 186.189 9.08594 187.863 9.08594C189.811 9.08594 191.567 9.57239 193.131 10.5453C194.723 11.5182 195.971 12.9081 196.876 14.7149C197.809 16.494 198.276 18.5649 198.276 20.9277C198.276 23.2904 197.809 25.3891 196.876 27.2238C195.971 29.0306 194.723 30.4344 193.131 31.4351C191.567 32.4358 189.811 32.9362 187.863 32.9362C186.189 32.9362 184.707 32.5887 183.418 31.8938C182.156 31.1988 181.127 30.3232 180.331 29.2669V43.5687H174.569V9.46122H180.331V12.7969ZM192.39 20.9277C192.39 19.5378 192.102 18.3425 191.526 17.3418C190.977 16.3133 190.236 15.535 189.304 15.0068C188.398 14.4787 187.41 14.2146 186.34 14.2146C185.298 14.2146 184.31 14.4925 183.377 15.0485C182.471 15.5767 181.73 16.355 181.154 17.3835C180.606 18.412 180.331 19.6212 180.331 21.011C180.331 22.4009 180.606 23.6101 181.154 24.6386C181.73 25.6671 182.471 26.4593 183.377 27.0153C184.31 27.5435 185.298 27.8075 186.34 27.8075C187.41 27.8075 188.398 27.5295 189.304 26.9736C190.236 26.4177 190.977 25.6254 191.526 24.5969C192.102 23.5684 192.39 22.3454 192.39 20.9277Z" fill="#30B5ED"/>
<path d="M198.276 20.8565C198.276 18.5356 198.728 16.4771 199.631 14.6811C200.563 12.8851 201.809 11.5036 203.37 10.5365C204.959 9.56947 206.726 9.08594 208.671 9.08594C210.369 9.08594 211.848 9.43131 213.108 10.1221C214.396 10.8129 215.423 11.6832 216.19 12.7332V9.45897H221.983V32.4198H216.19V29.0627C215.45 30.1403 214.423 31.0383 213.108 31.7567C211.82 32.4474 210.328 32.7928 208.63 32.7928C206.713 32.7928 204.959 32.2954 203.37 31.3008C201.809 30.3061 200.563 28.9107 199.631 27.1148C198.728 25.2911 198.276 23.2051 198.276 20.8565ZM216.19 20.9394C216.19 19.5302 215.916 18.3283 215.368 17.3336C214.82 16.3113 214.08 15.5377 213.149 15.0127C212.218 14.46 211.218 14.1838 210.15 14.1838C209.082 14.1838 208.096 14.4462 207.192 14.9712C206.287 15.4962 205.548 16.2699 204.973 17.2922C204.425 18.2869 204.151 19.475 204.151 20.8565C204.151 22.238 204.425 23.4537 204.973 24.5037C205.548 25.526 206.287 26.3135 207.192 26.8661C208.123 27.4187 209.109 27.695 210.15 27.695C211.218 27.695 212.218 27.4325 213.149 26.9075C214.08 26.3549 214.82 25.5813 215.368 24.5866C215.916 23.5643 216.19 22.3486 216.19 20.9394Z" fill="#30B5ED"/>
<path d="M250 10.1631L235.689 43.5683H229.471L234.479 32.2695L225.216 10.1631H231.766L237.733 26.006L243.783 10.1631H250Z" fill="#30B5ED"/>
<path d="M46.3362 23.6353C46.3362 25.3638 46.1466 27.0466 45.7888 28.6646C43.5586 38.7423 34.7672 46.3545 24.12 46.7819C23.8055 46.7962 23.4862 46.8011 23.1669 46.8011C19.2778 46.8011 15.6094 45.8408 12.3925 44.1484C11.5763 43.7187 10.7864 43.241 10.0326 42.7201C9.27635 42.1991 8.55377 41.6326 7.86472 41.0276C7.10133 40.3579 6.3835 39.6377 5.71611 38.8719C4.51575 37.4964 3.47144 35.9768 2.61918 34.342C2.38391 33.8931 2.16305 33.4345 1.95659 32.9664C1.56528 32.0806 1.23157 31.166 0.950691 30.225C0.331304 28.1364 0 25.9231 0 23.6329C0 22.5839 0.0696225 21.5516 0.204063 20.541C0.410524 18.9902 0.770628 17.4899 1.26758 16.0543C1.45963 15.4997 1.6709 14.9524 1.90377 14.4171C3.99 9.6111 7.65828 5.65012 12.2485 3.19191C12.3829 3.1199 12.5198 3.05028 12.6542 2.98066C12.7502 2.93265 12.8463 2.88224 12.9422 2.83662C16.0248 1.31705 19.4938 0.464844 23.1621 0.464844C23.4094 0.464844 23.6518 0.467241 23.8943 0.476844C32.2153 0.733707 39.4294 5.37886 43.3041 12.1749C45.2367 15.5574 46.3362 19.4655 46.3362 23.6353Z" fill="#30B5ED"/>
<path d="M43.2849 12.181C39.3917 5.3838 32.1433 0.736255 23.783 0.476857C23.5394 0.46725 23.2933 0.464844 23.0473 0.464844C19.3616 0.464844 15.8737 1.31749 12.779 2.83786C12.6825 2.88349 12.586 2.93393 12.4895 2.98197C12.3544 3.05162 12.217 3.12128 12.0819 3.19333C11.2739 3.62086 10.3765 3.92349 9.50336 4.34381C2.19467 9.52699 0.532732 12.7743 1.68813 14.4219C3.96516 17.674 17.2028 14.7077 19.6559 8.13148C21.4939 7.94179 22.9315 6.55109 24.2847 5.78731C24.743 7.86253 20.1793 8.71993 20.5918 11.4533C19.7211 14.2177 23.3706 15.0032 24.9167 13.1105C25.9877 12.2747 25.293 10.2043 26.4122 9.79839C30.0883 8.78001 27.6279 3.6761 24.5766 3.60645C37.6815 1.92516 43.4103 20.4145 31.5283 26.1765C25.2592 28.4078 29.6275 26.0252 32.1241 23.1622C37.1943 19.473 38.6512 2.42234 30.6045 13.2402C29.7891 16.12 26.4363 15.4811 24.9287 17.3089C23.426 21.1398 15.3406 18.7813 15.2032 23.2054C18.416 24.6921 13.5774 24.3896 12.024 24.7282C9.76143 28.4462 19.5257 25.9459 21.2069 25.2325C24.6899 26.2653 10.8324 31.0835 9.16807 30.9634C7.45307 32.0874 2.58543 29.8489 0.730524 30.238C0.0864902 30.3725 -0.195729 30.8264 0.146789 31.8496C0.371115 32.5269 1.01274 32.9881 1.73154 32.9833H1.7436C2.54442 32.9785 3.36213 32.9641 4.16535 33.394C3.70706 33.7615 3.02684 34.0497 2.40934 34.3571C1.20571 34.9624 0.23363 35.6445 1.61335 37.1337C2.44553 38.5699 3.8542 39.0047 5.52096 38.8894C11.3486 38.4883 20.3674 31.3861 19.294 36.9031C13.5846 41.822 9.91096 39.6436 7.68223 41.0463C7.29144 41.2913 6.94652 41.6491 6.6402 42.1703C6.35556 43.9261 9.21147 44.2455 12.2314 44.1662C14.8004 44.099 17.4826 43.7459 18.445 43.7459C19.3544 43.7459 18.7272 44.0606 15.0078 45.2375C18.2738 46.203 21.2768 46.7025 24.0146 46.8011C34.7098 46.3711 43.5454 38.7573 45.7863 28.6744C46.1481 27.0556 46.3362 25.3719 46.3362 23.6426C46.3241 19.473 45.2193 15.5628 43.2849 12.181ZM26.9694 41.8245C30.2764 39.634 32.6958 36.3939 36.6612 35.289C40.6653 33.3796 41.1791 28.4487 44.1267 25.4439C43.6997 31.8136 34.5675 40.4626 26.9694 41.8245ZM28.0428 44.4857C28.1441 44.5097 28.2116 44.5673 28.2333 44.4328C28.1538 44.3992 28.1103 44.4472 28.0428 44.4857Z" fill="#F5F5F5"/>
<path d="M9.71687 27.3946C5.26783 27.6052 8.65176 23.2949 10.9978 24.3337C12.6092 25.2638 11.8117 27.5751 9.71687 27.3946Z" fill="#F5F5F5"/>
</g>
<defs>
<clipPath id="clip0_2294_13767">
<rect width="250" height="46.3362" fill="white" transform="translate(0 0.464844)"/>
</clipPath>
</defs>
</svg>
